<svg width="263" height="51" viewBox="0 0 263 51" fill="none" xmlns="http://www.w3.org/2000/svg">
<path d="M19.5804 13.0423C19.4464 13.1902 19.2855 13.2629 19.0978 13.2629H6.87619C6.68606 13.2629 6.591 13.3678 6.591 13.5776V25.4335C6.591 25.6433 6.68606 25.7482 6.87619 25.7482H14.0936C14.2838 25.7482 14.4446 25.8209 14.5763 25.9688C14.7079 26.1168 14.7761 26.2944 14.7761 26.5015V31.3332C14.7761 31.543 14.7103 31.7206 14.5763 31.8658C14.4422 32.0138 14.2813 32.0864 14.0936 32.0864H6.87619C6.68606 32.0864 6.591 32.1914 6.591 32.4012V50.154C6.591 50.3639 6.52519 50.5414 6.39113 50.6867C6.25706 50.8347 6.09619 50.9073 5.9085 50.9073H0.682501C0.492376 50.9073 0.3315 50.8347 0.199875 50.6867C0.0658124 50.5414 0 50.3639 0 50.154V7.73984C0 7.53 0.0658124 7.35245 0.199875 7.20717C0.3315 7.0619 0.492376 6.98657 0.682501 6.98657H19.0978C19.2879 6.98657 19.4488 7.05921 19.5804 7.20717C19.7121 7.35514 19.7803 7.53269 19.7803 7.73984V12.5069C19.7803 12.7168 19.7121 12.8943 19.5804 13.0423Z" fill="#A9DCEE"/>
<path d="M19.7236 12.5069V7.73984C19.7236 7.53 19.7894 7.35245 19.9235 7.20717C20.0576 7.0619 20.2184 6.98657 20.4061 6.98657H38.8799C39.0701 6.98657 39.2309 7.05921 39.3626 7.20717C39.4966 7.35514 39.5624 7.53269 39.5624 7.73984V50.146C39.5624 50.3558 39.4966 50.5334 39.3626 50.6786C39.2309 50.8266 39.0701 50.8992 38.8799 50.8992H20.4061C20.216 50.8992 20.0551 50.8266 19.9235 50.6786C19.7919 50.5334 19.7236 50.3558 19.7236 50.146V45.3789C19.7236 45.169 19.7894 44.9915 19.9235 44.8462C20.0576 44.7009 20.2184 44.6256 20.4061 44.6256H32.6838C32.8739 44.6256 32.969 44.5207 32.969 44.3108V32.3904C32.969 32.1806 32.8739 32.0757 32.6838 32.0757H25.4079C25.2178 32.0757 25.0569 32.003 24.9253 31.8551C24.7936 31.7098 24.7254 31.5323 24.7254 31.3224V26.4961C24.7254 26.2863 24.7912 26.1087 24.9253 25.9635C25.0593 25.8182 25.2202 25.7429 25.4079 25.7429H32.6838C32.8739 25.7429 32.969 25.6379 32.969 25.4281V13.5723C32.969 13.3624 32.8739 13.2575 32.6838 13.2575H20.4061C20.216 13.2575 20.0551 13.1849 19.9235 13.0369C19.7894 12.8943 19.7236 12.7168 19.7236 12.5069Z" fill="white"/>
<path d="M70.5875 10.0457C70.5192 10.121 70.4363 10.1587 70.3413 10.1587H64.0866C63.9891 10.1587 63.9404 10.2125 63.9404 10.3201V16.3865C63.9404 16.4942 63.9891 16.548 64.0866 16.548H67.7795C67.877 16.548 67.9574 16.5856 68.0256 16.661C68.0939 16.7363 68.128 16.8278 68.128 16.9327V19.405C68.128 19.5126 68.0939 19.6041 68.0256 19.6767C67.9574 19.752 67.8745 19.7897 67.7795 19.7897H64.0866C63.9891 19.7897 63.9404 19.8435 63.9404 19.9511V29.036C63.9404 29.1436 63.9063 29.2351 63.838 29.3077C63.7698 29.3831 63.6869 29.4207 63.5918 29.4207H60.9179C60.8204 29.4207 60.7375 29.3831 60.6717 29.3077C60.6035 29.2324 60.5693 29.1409 60.5693 29.036V7.33661C60.5693 7.229 60.6035 7.13753 60.6717 7.0649C60.74 6.98957 60.8228 6.9519 60.9179 6.9519H70.3413C70.4388 6.9519 70.5192 6.98957 70.5875 7.0649C70.6557 7.14022 70.6898 7.23169 70.6898 7.33661V9.77665C70.6898 9.87888 70.6557 9.97034 70.5875 10.0457Z" fill="white"/>
<path d="M73.73 27.8925C72.7306 26.7034 72.231 25.1377 72.231 23.19V7.33375C72.231 7.22614 72.2651 7.13467 72.3333 7.06203C72.4016 6.9867 72.4845 6.94905 72.5795 6.94905H75.2559C75.3534 6.94905 75.4338 6.9867 75.5021 7.06203C75.5703 7.13736 75.6045 7.22883 75.6045 7.33375V23.5774C75.6045 24.4329 75.797 25.1296 76.187 25.665C76.5746 26.2003 77.0889 26.4667 77.7275 26.4667C78.3661 26.4667 78.8805 26.2003 79.268 25.665C79.6556 25.1296 79.8506 24.4355 79.8506 23.5774V7.33375C79.8506 7.22614 79.8847 7.13467 79.953 7.06203C80.0212 6.9867 80.1041 6.94905 80.1991 6.94905H82.8755C82.973 6.94905 83.0535 6.9867 83.1217 7.06203C83.19 7.13736 83.2241 7.22883 83.2241 7.33375V23.19C83.2241 25.1377 82.7195 26.7061 81.7128 27.8925C80.7037 29.0816 79.3753 29.6734 77.7275 29.6734C76.0603 29.6734 74.727 29.0789 73.73 27.8925ZM76.0993 4.76458C76.0408 4.67849 76.0505 4.57088 76.1285 4.44444L77.8445 1.13814C77.9225 0.965969 78.0663 0.882568 78.2808 0.882568H80.3746C80.5306 0.882568 80.6257 0.930995 80.6647 1.02784C80.7037 1.12469 80.6842 1.23768 80.6062 1.36412L78.4539 4.67042C78.3564 4.82107 78.2223 4.8964 78.0468 4.8964H76.3893C76.2553 4.89371 76.1578 4.85067 76.0993 4.76458Z" fill="white"/>
<path d="M96.6477 7.05928C96.7159 7.13461 96.7501 7.22607 96.7501 7.33099V9.77103C96.7501 9.87864 96.7159 9.97011 96.6477 10.0427C96.5794 10.1181 96.4966 10.1557 96.4015 10.1557H92.7087C92.6112 10.1557 92.5624 10.2095 92.5624 10.3171V29.0304C92.5624 29.138 92.5283 29.2295 92.4601 29.3021C92.3918 29.3774 92.3089 29.4151 92.2139 29.4151H89.5375C89.44 29.4151 89.3571 29.3774 89.2913 29.3021C89.2231 29.2268 89.1889 29.1353 89.1889 29.0304V10.3171C89.1889 10.2095 89.1402 10.1557 89.0427 10.1557H85.5522C85.4547 10.1557 85.3718 10.1181 85.306 10.0427C85.2377 9.96742 85.2036 9.87595 85.2036 9.77103V7.33099C85.2036 7.22338 85.2377 7.13192 85.306 7.05928C85.3742 6.98396 85.4571 6.94629 85.5522 6.94629H96.4015C96.4966 6.94629 96.5794 6.98396 96.6477 7.05928Z" fill="white"/>
<path d="M108.34 27.8118C107.301 28.8826 105.951 29.4179 104.281 29.4179H99.1625C99.065 29.4179 98.9822 29.3802 98.9163 29.3049C98.8481 29.2296 98.814 29.1381 98.814 29.0332V7.3338C98.814 7.22619 98.8481 7.13472 98.9163 7.06208C98.9846 6.98676 99.0675 6.9491 99.1625 6.9491H103.757C105.6 6.9491 107.043 7.46293 108.091 8.49059C109.139 9.51826 109.661 11.0167 109.661 12.986C109.661 15.1893 108.954 16.7631 107.538 17.7046C107.44 17.7692 107.421 17.8338 107.479 17.8983C108.235 18.4337 108.827 19.1493 109.254 20.0478C109.68 20.9464 109.892 22.0171 109.892 23.2573C109.895 25.2238 109.376 26.7411 108.34 27.8118ZM102.187 10.3173V16.2869C102.187 16.3945 102.236 16.4483 102.334 16.4483H103.818C104.613 16.4483 105.234 16.182 105.68 15.6466C106.126 15.1113 106.348 14.3526 106.348 13.368C106.348 12.3403 106.124 11.5494 105.68 10.9925C105.234 10.4356 104.613 10.1585 103.818 10.1585H102.334C102.236 10.1559 102.187 10.2097 102.187 10.3173ZM105.853 25.2749C106.3 24.675 106.521 23.8303 106.521 22.7381C106.521 21.6243 106.297 20.7527 105.853 20.1232C105.407 19.491 104.796 19.1762 104.02 19.1762H102.334C102.236 19.1762 102.187 19.23 102.187 19.3376V26.0148C102.187 26.1224 102.236 26.1762 102.334 26.1762H104.02C104.796 26.1735 105.405 25.8749 105.853 25.2749Z" fill="white"/>
<path d="M113.136 28.0055C112.117 26.8917 111.61 25.4175 111.61 23.5747V12.7896C111.61 10.9494 112.12 9.4725 113.136 8.35874C114.155 7.24499 115.496 6.68811 117.165 6.68811C118.833 6.68811 120.181 7.24499 121.209 8.35874C122.238 9.4725 122.75 10.9467 122.75 12.7896V23.5747C122.75 25.4148 122.235 26.8917 121.209 28.0055C120.181 29.1193 118.833 29.6735 117.165 29.6735C115.498 29.6735 114.155 29.1166 113.136 28.0055ZM118.764 25.7081C119.171 25.205 119.376 24.5486 119.376 23.7334V12.6281C119.376 11.8157 119.171 11.1566 118.764 10.6535C118.357 10.1504 117.824 9.90025 117.165 9.90025C116.505 9.90025 115.978 10.1531 115.581 10.6535C115.184 11.1566 114.984 11.8157 114.984 12.6281V23.7334C114.984 24.5459 115.181 25.205 115.581 25.7081C115.978 26.2111 116.507 26.4613 117.165 26.4613C117.824 26.464 118.357 26.2111 118.764 25.7081Z" fill="white"/>
<path d="M125.353 29.3049C125.285 29.2296 125.25 29.1381 125.25 29.0332V7.3338C125.25 7.22619 125.285 7.13472 125.353 7.06208C125.421 6.98676 125.504 6.9491 125.599 6.9491H128.275C128.373 6.9491 128.453 6.98676 128.522 7.06208C128.59 7.13741 128.624 7.22888 128.624 7.3338V26.0471C128.624 26.1547 128.673 26.2085 128.77 26.2085H135.052C135.149 26.2085 135.23 26.2461 135.298 26.3214C135.366 26.3968 135.4 26.4882 135.4 26.5932V29.0332C135.4 29.1408 135.366 29.2323 135.298 29.3049C135.23 29.3802 135.147 29.4179 135.052 29.4179H125.599C125.502 29.4179 125.421 29.3802 125.353 29.3049Z" fill="white"/>
<path d="M152.604 10.0457C152.536 10.121 152.453 10.1587 152.358 10.1587H146.076C145.979 10.1587 145.93 10.2125 145.93 10.3201V16.3865C145.93 16.4942 145.979 16.548 146.076 16.548H149.798C149.896 16.548 149.976 16.5856 150.045 16.661C150.113 16.7363 150.147 16.8278 150.147 16.9327V19.405C150.147 19.5126 150.113 19.6041 150.045 19.6767C149.976 19.752 149.894 19.7897 149.798 19.7897H146.076C145.979 19.7897 145.93 19.8435 145.93 19.9511V26.0499C145.93 26.1575 145.979 26.2113 146.076 26.2113H152.358C152.455 26.2113 152.536 26.2489 152.604 26.3243C152.672 26.3996 152.706 26.4911 152.706 26.596V29.036C152.706 29.1436 152.672 29.2351 152.604 29.3077C152.536 29.3831 152.453 29.4207 152.358 29.4207H142.905C142.808 29.4207 142.725 29.3831 142.659 29.3077C142.591 29.2324 142.557 29.1409 142.557 29.036V7.33661C142.557 7.229 142.591 7.13753 142.659 7.0649C142.727 6.98957 142.81 6.9519 142.905 6.9519H152.358C152.455 6.9519 152.536 6.98957 152.604 7.0649C152.672 7.14022 152.706 7.23169 152.706 7.33661V9.77665C152.706 9.87888 152.672 9.97034 152.604 10.0457Z" fill="white"/>
<path d="M154.248 29.2888C154.209 29.2027 154.209 29.0951 154.248 28.9687L158.233 18.2804C158.253 18.2158 158.253 18.1512 158.233 18.0867L154.248 7.39837C154.229 7.35532 154.219 7.29076 154.219 7.20467C154.219 7.0325 154.316 6.94641 154.509 6.94641H157.271C157.463 6.94641 157.59 7.05402 157.648 7.26655L159.976 14.2316C159.996 14.2961 160.025 14.3284 160.064 14.3284C160.103 14.3284 160.132 14.2961 160.152 14.2316L162.45 7.26655C162.509 7.05402 162.633 6.94641 162.828 6.94641H165.563C165.699 6.94641 165.785 6.98946 165.824 7.07555C165.863 7.16163 165.863 7.26924 165.824 7.39568L161.838 18.084C161.819 18.1485 161.819 18.2131 161.838 18.2777L165.824 28.966C165.843 29.009 165.853 29.0736 165.853 29.1596C165.853 29.3318 165.755 29.4152 165.563 29.4152H162.857C162.643 29.4152 162.509 29.3076 162.45 29.0951L160.152 22.1624C160.132 22.0978 160.103 22.0655 160.064 22.0655C160.025 22.0655 159.996 22.0978 159.976 22.1624L157.648 29.0951C157.59 29.3103 157.453 29.4152 157.241 29.4152H154.509C154.375 29.4179 154.287 29.3749 154.248 29.2888Z" fill="white"/>
<path d="M176.512 7.74804C177.297 8.30491 177.908 9.08508 178.345 10.0912C178.781 11.0974 178.998 12.2434 178.998 13.5266C178.998 15.4529 178.537 17.0051 177.616 18.1807C176.695 19.3591 175.478 19.9455 173.967 19.9455H171.495C171.398 19.9455 171.349 19.9994 171.349 20.107V29.0305C171.349 29.1381 171.315 29.2295 171.247 29.3022C171.178 29.3775 171.096 29.4152 171.001 29.4152H168.324C168.227 29.4152 168.144 29.3775 168.078 29.3022C168.01 29.2268 167.976 29.1354 167.976 29.0305V7.29876C167.976 7.19115 168.01 7.10237 168.078 7.02705C168.146 6.95172 168.229 6.91406 168.324 6.91406H173.791C174.82 6.91406 175.727 7.19385 176.512 7.74804ZM174.971 16.112C175.408 15.5013 175.627 14.6727 175.627 13.6235C175.627 12.5528 175.408 11.7027 174.971 11.0705C174.535 10.4383 173.957 10.1235 173.241 10.1235H171.495C171.398 10.1235 171.349 10.1773 171.349 10.2849V16.8652C171.349 16.9728 171.398 17.0266 171.495 17.0266H173.241C173.957 17.0266 174.535 16.7199 174.971 16.112Z" fill="white"/>
<path d="M191.053 10.0457C190.985 10.121 190.902 10.1587 190.807 10.1587H184.523C184.426 10.1587 184.377 10.2125 184.377 10.3201V16.3865C184.377 16.4942 184.426 16.548 184.523 16.548H188.245C188.343 16.548 188.423 16.5856 188.491 16.661C188.56 16.7363 188.594 16.8278 188.594 16.9327V19.405C188.594 19.5126 188.56 19.6041 188.491 19.6767C188.423 19.752 188.34 19.7897 188.245 19.7897H184.523C184.426 19.7897 184.377 19.8435 184.377 19.9511V26.0499C184.377 26.1575 184.426 26.2113 184.523 26.2113H190.805C190.902 26.2113 190.983 26.2489 191.051 26.3243C191.119 26.3996 191.153 26.4911 191.153 26.596V29.036C191.153 29.1436 191.119 29.2351 191.051 29.3077C190.983 29.3831 190.9 29.4207 190.805 29.4207H181.352C181.254 29.4207 181.172 29.3831 181.106 29.3077C181.038 29.2324 181.003 29.1409 181.003 29.036V7.33661C181.003 7.229 181.038 7.13753 181.106 7.0649C181.174 6.98957 181.257 6.9519 181.352 6.9519H190.805C190.902 6.9519 190.983 6.98957 191.051 7.0649C191.119 7.14022 191.153 7.23169 191.153 7.33661V9.77665C191.156 9.87888 191.121 9.97034 191.053 10.0457Z" fill="white"/>
<path d="M201.041 29.0951L198.57 19.881C198.531 19.795 198.482 19.7519 198.424 19.7519H196.883C196.786 19.7519 196.737 19.8057 196.737 19.9133V29.0305C196.737 29.1381 196.703 29.2296 196.634 29.3022C196.566 29.3776 196.483 29.4152 196.388 29.4152H193.712C193.614 29.4152 193.531 29.3776 193.466 29.3022C193.397 29.2269 193.363 29.1354 193.363 29.0305V7.33111C193.363 7.2235 193.397 7.13204 193.466 7.0594C193.534 6.98408 193.617 6.94641 193.712 6.94641H199.179C200.205 6.94641 201.115 7.21813 201.899 7.76424C202.684 8.31036 203.296 9.07977 203.732 10.0752C204.169 11.0705 204.386 12.2112 204.386 13.4944C204.386 14.8207 204.154 15.9668 203.689 16.9299C203.223 17.893 202.575 18.6193 201.741 19.1116C201.663 19.1332 201.634 19.1977 201.653 19.3053L204.503 28.9687C204.522 29.0117 204.532 29.0655 204.532 29.1301C204.532 29.3238 204.425 29.4179 204.213 29.4179H201.419C201.227 29.4179 201.1 29.3103 201.041 29.0951ZM196.737 10.3173V16.7039C196.737 16.8115 196.786 16.8653 196.883 16.8653H198.658C199.355 16.8653 199.923 16.5667 200.359 15.9668C200.795 15.3668 201.015 14.5544 201.015 13.5267C201.015 12.499 200.798 11.6812 200.359 11.0705C199.923 10.4598 199.355 10.1559 198.658 10.1559H196.883C196.786 10.1559 196.737 10.2097 196.737 10.3173Z" fill="white"/>
<path d="M206.583 29.3048C206.515 29.2295 206.481 29.138 206.481 29.0331V7.33368C206.481 7.22607 206.515 7.1346 206.583 7.06196C206.652 6.98663 206.734 6.94897 206.83 6.94897H209.506C209.603 6.94897 209.684 6.98663 209.752 7.06196C209.82 7.13729 209.854 7.22876 209.854 7.33368V29.0331C209.854 29.1407 209.82 29.2322 209.752 29.3048C209.684 29.3801 209.601 29.4178 209.506 29.4178H206.83C206.734 29.4178 206.652 29.3801 206.583 29.3048Z" fill="white"/>
<path d="M222.756 10.0457C222.688 10.121 222.605 10.1587 222.51 10.1587H216.228C216.131 10.1587 216.082 10.2125 216.082 10.3201V16.3865C216.082 16.4942 216.131 16.548 216.228 16.548H219.95C220.048 16.548 220.131 16.5856 220.196 16.661C220.265 16.7363 220.299 16.8278 220.299 16.9327V19.405C220.299 19.5126 220.265 19.6041 220.196 19.6767C220.128 19.752 220.045 19.7897 219.95 19.7897H216.228C216.131 19.7897 216.082 19.8435 216.082 19.9511V26.0499C216.082 26.1575 216.131 26.2113 216.228 26.2113H222.51C222.607 26.2113 222.688 26.2489 222.756 26.3243C222.824 26.3996 222.858 26.4911 222.858 26.596V29.036C222.858 29.1436 222.824 29.2351 222.756 29.3077C222.688 29.3831 222.605 29.4207 222.51 29.4207H213.057C212.96 29.4207 212.877 29.3831 212.811 29.3077C212.743 29.2324 212.708 29.1409 212.708 29.036V7.33661C212.708 7.229 212.743 7.13753 212.811 7.0649C212.879 6.98957 212.962 6.9519 213.057 6.9519H222.51C222.607 6.9519 222.688 6.98957 222.756 7.0649C222.824 7.14022 222.858 7.23169 222.858 7.33661V9.77665C222.856 9.87888 222.822 9.97034 222.756 10.0457Z" fill="white"/>
<path d="M233.429 7.0594C233.498 6.98408 233.581 6.94641 233.678 6.94641H236.325C236.423 6.94641 236.503 6.98408 236.571 7.0594C236.64 7.13473 236.674 7.22619 236.674 7.33111V29.0305C236.674 29.1381 236.64 29.2296 236.571 29.3022C236.503 29.3776 236.42 29.4152 236.325 29.4152H233.271C233.078 29.4152 232.952 29.3076 232.893 29.0951L228.559 15.4852C228.54 15.4206 228.506 15.3937 228.457 15.4045C228.408 15.4153 228.384 15.4529 228.384 15.5175L228.413 29.0305C228.413 29.1381 228.379 29.2296 228.311 29.3022C228.242 29.3776 228.16 29.4152 228.065 29.4152H225.417C225.32 29.4152 225.237 29.3776 225.171 29.3022C225.103 29.2269 225.069 29.1354 225.069 29.0305V7.33111C225.069 7.2235 225.103 7.13204 225.171 7.0594C225.239 6.98408 225.322 6.94641 225.417 6.94641H228.413C228.606 6.94641 228.732 7.05402 228.791 7.26655L233.154 20.7796C233.174 20.8442 233.208 20.871 233.256 20.8603C233.305 20.8495 233.33 20.8119 233.33 20.7473V7.32843C233.327 7.2262 233.361 7.13473 233.429 7.0594Z" fill="white"/>
<path d="M240.671 28.019C239.672 26.916 239.172 25.4552 239.172 23.6366V12.69C239.172 10.8499 239.672 9.38911 240.671 8.30763C241.671 7.22616 242.994 6.68542 244.642 6.68542C246.309 6.68542 247.648 7.22616 248.657 8.30763C249.666 9.38911 250.17 10.8499 250.17 12.69V13.0747C250.17 13.1823 250.136 13.2792 250.068 13.3626C250 13.4487 249.917 13.4917 249.822 13.4917L247.116 13.6209C246.885 13.6209 246.768 13.4917 246.768 13.2361V12.4344C246.768 11.6866 246.575 11.0759 246.185 10.6051C245.797 10.1343 245.283 9.90026 244.645 9.90026C244.023 9.90026 243.521 10.137 243.133 10.6051C242.746 11.0759 242.551 11.6866 242.551 12.4344V23.9271C242.551 24.6777 242.743 25.2857 243.133 25.7565C243.521 26.2273 244.025 26.4613 244.645 26.4613C245.286 26.4613 245.797 26.2273 246.185 25.7565C246.573 25.2857 246.768 24.675 246.768 23.9271V23.1254C246.768 23.0178 246.802 22.929 246.87 22.8537C246.938 22.7784 247.021 22.7407 247.116 22.7407L249.822 22.8699C249.919 22.8699 250 22.9075 250.068 22.9829C250.136 23.0582 250.17 23.1497 250.17 23.2546V23.6393C250.17 25.4579 249.666 26.9187 248.657 28.0217C247.648 29.1246 246.312 29.6735 244.642 29.6735C242.992 29.6735 241.668 29.122 240.671 28.019Z" fill="white"/>
<path d="M262.57 10.0457C262.502 10.121 262.419 10.1587 262.324 10.1587H256.043C255.945 10.1587 255.896 10.2125 255.896 10.3201V16.3865C255.896 16.4942 255.945 16.548 256.043 16.548H259.765C259.862 16.548 259.945 16.5856 260.011 16.661C260.079 16.7363 260.113 16.8278 260.113 16.9327V19.405C260.113 19.5126 260.079 19.6041 260.011 19.6767C259.943 19.752 259.86 19.7897 259.765 19.7897H256.043C255.945 19.7897 255.896 19.8435 255.896 19.9511V26.0499C255.896 26.1575 255.945 26.2113 256.043 26.2113H262.324C262.422 26.2113 262.502 26.2489 262.57 26.3243C262.639 26.3996 262.673 26.4911 262.673 26.596V29.036C262.673 29.1436 262.639 29.2351 262.57 29.3077C262.502 29.3831 262.419 29.4207 262.324 29.4207H252.872C252.774 29.4207 252.691 29.3831 252.625 29.3077C252.557 29.2324 252.523 29.1409 252.523 29.036V7.33661C252.523 7.229 252.557 7.13753 252.625 7.0649C252.694 6.98957 252.776 6.9519 252.872 6.9519H262.324C262.422 6.9519 262.502 6.98957 262.57 7.0649C262.639 7.14022 262.673 7.23169 262.673 7.33661V9.77665C262.673 9.87888 262.639 9.97034 262.57 10.0457Z" fill="white"/>
<path d="M66.2222 39.1832C66.2564 39.2209 66.2734 39.2666 66.2734 39.3204V40.5444C66.2734 40.5983 66.2564 40.644 66.2222 40.6817C66.1881 40.7193 66.1467 40.7382 66.0979 40.7382H64.2454C64.1967 40.7382 64.1723 40.7651 64.1723 40.8189V50.2051C64.1723 50.2589 64.1552 50.3046 64.1211 50.3423C64.087 50.3799 64.0456 50.3988 63.9968 50.3988H62.6537C62.605 50.3988 62.5636 50.3799 62.5294 50.3423C62.4953 50.3046 62.4782 50.2589 62.4782 50.2051V40.8189C62.4782 40.7651 62.4539 40.7382 62.4051 40.7382H60.655C60.6062 40.7382 60.5648 40.7193 60.5307 40.6817C60.4966 40.644 60.4795 40.5983 60.4795 40.5444V39.3204C60.4795 39.2666 60.4966 39.2209 60.5307 39.1832C60.5648 39.1455 60.6062 39.1267 60.655 39.1267H66.0955C66.1467 39.1267 66.1881 39.1455 66.2222 39.1832Z" fill="white"/>
<path d="M76.3006 39.1832C76.3348 39.1455 76.3762 39.1267 76.425 39.1267H77.768C77.8168 39.1267 77.8582 39.1455 77.8923 39.1832C77.9265 39.2209 77.9435 39.2666 77.9435 39.3204V50.2024C77.9435 50.2562 77.9265 50.3019 77.8923 50.3396C77.8582 50.3773 77.8168 50.3961 77.768 50.3961H76.425C76.3762 50.3961 76.3348 50.3773 76.3006 50.3396C76.2665 50.3019 76.2495 50.2562 76.2495 50.2024V45.6478C76.2495 45.594 76.2251 45.5671 76.1763 45.5671H74.3238C74.2751 45.5671 74.2507 45.594 74.2507 45.6478V50.2024C74.2507 50.2562 74.2336 50.3019 74.1995 50.3396C74.1654 50.3773 74.124 50.3961 74.0752 50.3961H72.7321C72.6834 50.3961 72.642 50.3773 72.6078 50.3396C72.5737 50.3019 72.5566 50.2562 72.5566 50.2024V39.3204C72.5566 39.2666 72.5737 39.2209 72.6078 39.1832C72.642 39.1455 72.6834 39.1267 72.7321 39.1267H74.0752C74.124 39.1267 74.1654 39.1455 74.1995 39.1832C74.2336 39.2209 74.2507 39.2666 74.2507 39.3204V43.8615C74.2507 43.9153 74.2751 43.9422 74.3238 43.9422H76.1763C76.2251 43.9422 76.2495 43.9153 76.2495 43.8615V39.3204C76.2495 39.2666 76.2665 39.2209 76.3006 39.1832Z" fill="white"/>
<path d="M89.6028 40.6791C89.5686 40.7168 89.5272 40.7356 89.4785 40.7356H86.3292C86.2804 40.7356 86.2561 40.7625 86.2561 40.8163V43.8589C86.2561 43.9128 86.2804 43.9397 86.3292 43.9397H88.1963C88.2451 43.9397 88.2865 43.9585 88.3206 43.9962C88.3548 44.0338 88.3718 44.0796 88.3718 44.1334V45.3736C88.3718 45.4274 88.3548 45.4731 88.3206 45.5108C88.2865 45.5484 88.2451 45.5673 88.1963 45.5673H86.3292C86.2804 45.5673 86.2561 45.5942 86.2561 45.648V48.7068C86.2561 48.7606 86.2804 48.7875 86.3292 48.7875H89.4785C89.5272 48.7875 89.5686 48.8063 89.6028 48.844C89.6369 48.8816 89.654 48.9274 89.654 48.9812V50.2052C89.654 50.259 89.6369 50.3048 89.6028 50.3424C89.5686 50.3801 89.5272 50.3989 89.4785 50.3989H84.7375C84.6888 50.3989 84.6473 50.3801 84.6132 50.3424C84.5791 50.3048 84.562 50.259 84.562 50.2052V39.3232C84.562 39.2694 84.5791 39.2237 84.6132 39.186C84.6473 39.1484 84.6888 39.1295 84.7375 39.1295H89.4785C89.5272 39.1295 89.5686 39.1484 89.6028 39.186C89.6369 39.2237 89.654 39.2694 89.654 39.3232V40.5473C89.654 40.5957 89.6369 40.6414 89.6028 40.6791Z" fill="white"/>
<path d="M108.813 49.589C108.293 50.1271 107.613 50.3934 106.777 50.3934H104.211C104.162 50.3934 104.12 50.3746 104.086 50.3369C104.052 50.2992 104.035 50.2535 104.035 50.1997V39.3177C104.035 39.2639 104.052 39.2182 104.086 39.1805C104.12 39.1428 104.162 39.124 104.211 39.124H106.517C107.44 39.124 108.164 39.3823 108.691 39.8961C109.217 40.41 109.478 41.1632 109.478 42.1505C109.478 43.2562 109.122 44.0445 108.413 44.5179C108.364 44.5502 108.354 44.5825 108.384 44.6148C108.764 44.8838 109.059 45.2416 109.273 45.6936C109.488 46.1455 109.595 46.6809 109.595 47.3023C109.593 48.2923 109.334 49.0537 108.813 49.589ZM105.729 40.8162V43.8104C105.729 43.8642 105.754 43.8911 105.802 43.8911H106.546C106.943 43.8911 107.255 43.7566 107.479 43.4876C107.704 43.2185 107.816 42.8392 107.816 42.3442C107.816 41.8277 107.704 41.4322 107.479 41.1525C107.255 40.8727 106.946 40.7328 106.546 40.7328H105.802C105.754 40.7355 105.729 40.7624 105.729 40.8162ZM107.567 48.3192C107.791 48.0179 107.903 47.5956 107.903 47.0468C107.903 46.4899 107.791 46.0514 107.567 45.7339C107.343 45.4165 107.038 45.2577 106.648 45.2577H105.802C105.754 45.2577 105.729 45.2846 105.729 45.3385V48.6878C105.729 48.7416 105.754 48.7685 105.802 48.7685H106.648C107.036 48.7685 107.343 48.6178 107.567 48.3192Z" fill="white"/>
<path d="M120.861 40.6791C120.827 40.7168 120.786 40.7356 120.737 40.7356H117.588C117.539 40.7356 117.514 40.7625 117.514 40.8163V43.8589C117.514 43.9128 117.539 43.9397 117.588 43.9397H119.455C119.503 43.9397 119.545 43.9585 119.579 43.9962C119.613 44.0338 119.63 44.0796 119.63 44.1334V45.3736C119.63 45.4274 119.613 45.4731 119.579 45.5108C119.545 45.5484 119.503 45.5673 119.455 45.5673H117.588C117.539 45.5673 117.514 45.5942 117.514 45.648V48.7068C117.514 48.7606 117.539 48.7875 117.588 48.7875H120.737C120.786 48.7875 120.827 48.8063 120.861 48.844C120.895 48.8816 120.912 48.9274 120.912 48.9812V50.2052C120.912 50.259 120.895 50.3048 120.861 50.3424C120.827 50.3801 120.786 50.3989 120.737 50.3989H115.996C115.947 50.3989 115.906 50.3801 115.872 50.3424C115.837 50.3048 115.82 50.259 115.82 50.2052V39.3232C115.82 39.2694 115.837 39.2237 115.872 39.186C115.906 39.1484 115.947 39.1295 115.996 39.1295H120.737C120.786 39.1295 120.827 39.1484 120.861 39.186C120.895 39.2237 120.912 39.2694 120.912 39.3232V40.5473C120.912 40.5957 120.895 40.6414 120.861 40.6791Z" fill="white"/>
<path d="M127.725 49.7183C127.228 49.1829 126.982 48.4781 126.982 47.6091V47.1894C126.982 47.1356 126.999 47.0899 127.033 47.0522C127.067 47.0146 127.109 46.9957 127.157 46.9957H128.486C128.535 46.9957 128.576 47.0146 128.61 47.0522C128.644 47.0899 128.661 47.1356 128.661 47.1894V47.5123C128.661 47.9319 128.756 48.2682 128.947 48.5265C129.137 48.7847 129.383 48.9139 129.683 48.9139C129.985 48.9139 130.231 48.7928 130.426 48.5507C130.621 48.3086 130.719 47.9911 130.719 47.593C130.719 47.3132 130.665 47.0738 130.558 46.8693C130.45 46.6648 130.299 46.4711 130.107 46.2909C129.912 46.108 129.602 45.8443 129.173 45.5027C128.686 45.1153 128.296 44.7736 127.998 44.4723C127.701 44.171 127.455 43.8105 127.255 43.3854C127.055 42.9604 126.955 42.4708 126.955 41.9139C126.955 41.0234 127.199 40.3159 127.684 39.7886C128.169 39.264 128.812 39.0004 129.61 39.0004C130.416 39.0004 131.067 39.2775 131.564 39.829C132.059 40.3831 132.308 41.1149 132.308 42.0269V42.4143C132.308 42.4681 132.291 42.5138 132.257 42.5515C132.223 42.5891 132.181 42.608 132.132 42.608H130.819C130.77 42.608 130.728 42.5891 130.694 42.5515C130.66 42.5138 130.643 42.4681 130.643 42.4143V41.9946C130.643 41.5749 130.548 41.2413 130.358 40.9885C130.168 40.7356 129.917 40.6091 129.607 40.6091C129.315 40.6091 129.078 40.7248 128.893 40.9562C128.708 41.1875 128.615 41.505 128.615 41.9139C128.615 42.3013 128.715 42.6268 128.915 42.8958C129.115 43.1648 129.505 43.5334 130.09 44.0069C130.682 44.4884 131.131 44.8839 131.43 45.1906C131.733 45.4973 131.964 45.8309 132.13 46.1967C132.296 46.5626 132.379 46.9957 132.379 47.5015C132.379 48.4135 132.13 49.1452 131.635 49.6994C131.138 50.2536 130.487 50.528 129.68 50.528C128.871 50.5226 128.22 50.2563 127.725 49.7183Z" fill="white"/>
<path d="M143.937 39.1832C143.971 39.2209 143.988 39.2666 143.988 39.3204V40.5444C143.988 40.5983 143.971 40.644 143.937 40.6817C143.903 40.7193 143.862 40.7382 143.813 40.7382H141.96C141.912 40.7382 141.887 40.7651 141.887 40.8189V50.2051C141.887 50.2589 141.87 50.3046 141.836 50.3423C141.802 50.3799 141.76 50.3988 141.712 50.3988H140.369C140.32 50.3988 140.278 50.3799 140.244 50.3423C140.21 50.3046 140.193 50.2589 140.193 50.2051V40.8189C140.193 40.7651 140.169 40.7382 140.12 40.7382H138.37C138.321 40.7382 138.28 40.7193 138.246 40.6817C138.211 40.644 138.194 40.5983 138.194 40.5444V39.3204C138.194 39.2666 138.211 39.2209 138.246 39.1832C138.28 39.1455 138.321 39.1267 138.37 39.1267H143.81C143.862 39.1267 143.903 39.1455 143.937 39.1832Z" fill="white"/>
<path d="M163.656 39.1832C163.69 39.2209 163.708 39.2666 163.708 39.3204V40.5444C163.708 40.5983 163.69 40.644 163.656 40.6817C163.622 40.7193 163.581 40.7382 163.532 40.7382H161.68C161.631 40.7382 161.606 40.7651 161.606 40.8189V50.2051C161.606 50.2589 161.589 50.3046 161.555 50.3423C161.521 50.3799 161.48 50.3988 161.431 50.3988H160.088C160.039 50.3988 159.998 50.3799 159.964 50.3423C159.929 50.3046 159.912 50.2589 159.912 50.2051V40.8189C159.912 40.7651 159.888 40.7382 159.839 40.7382H158.089C158.04 40.7382 157.999 40.7193 157.965 40.6817C157.931 40.644 157.914 40.5983 157.914 40.5444V39.3204C157.914 39.2666 157.931 39.2209 157.965 39.1832C157.999 39.1455 158.04 39.1267 158.089 39.1267H163.53C163.583 39.1267 163.622 39.1455 163.656 39.1832Z" fill="white"/>
<path d="M170.235 49.6859C169.726 49.129 169.47 48.3865 169.47 47.4637V42.0537C169.47 41.1309 169.726 40.3911 170.235 39.8315C170.745 39.2747 171.42 38.9949 172.256 38.9949C173.092 38.9949 173.767 39.2747 174.284 39.8315C174.798 40.3884 175.056 41.1309 175.056 42.0537V47.4637C175.056 48.3865 174.798 49.1263 174.284 49.6859C173.767 50.2427 173.092 50.5225 172.256 50.5225C171.42 50.5225 170.747 50.2454 170.235 49.6859ZM173.058 48.5344C173.262 48.2816 173.365 47.9534 173.365 47.5444V41.973C173.365 41.564 173.262 41.2358 173.058 40.983C172.853 40.7301 172.585 40.6036 172.256 40.6036C171.924 40.6036 171.661 40.7301 171.461 40.983C171.261 41.2358 171.161 41.5667 171.161 41.973V47.5444C171.161 47.9534 171.261 48.2816 171.461 48.5344C171.661 48.7873 171.924 48.9138 172.256 48.9138C172.587 48.9138 172.853 48.7873 173.058 48.5344Z" fill="white"/>
<path d="M182.255 49.6294C181.753 49.0348 181.504 48.2466 181.504 47.27V39.3177C181.504 39.2639 181.521 39.2182 181.555 39.1805C181.589 39.1428 181.631 39.124 181.679 39.124H183.022C183.071 39.124 183.113 39.1428 183.147 39.1805C183.181 39.2182 183.198 39.2639 183.198 39.3177V47.4637C183.198 47.8942 183.295 48.2412 183.49 48.5102C183.685 48.7793 183.941 48.9138 184.263 48.9138C184.585 48.9138 184.841 48.7793 185.036 48.5102C185.231 48.2412 185.328 47.8942 185.328 47.4637V39.3177C185.328 39.2639 185.345 39.2182 185.38 39.1805C185.414 39.1428 185.455 39.124 185.504 39.124H186.844C186.893 39.124 186.935 39.1428 186.969 39.1805C187.003 39.2182 187.02 39.2639 187.02 39.3177V47.27C187.02 48.2466 186.766 49.0321 186.262 49.6294C185.757 50.2266 185.089 50.5225 184.263 50.5225C183.425 50.5225 182.757 50.2266 182.255 49.6294Z" fill="white"/>
<path d="M197.491 50.2347L196.251 45.6155C196.231 45.5725 196.207 45.551 196.178 45.551H195.405C195.356 45.551 195.332 45.5779 195.332 45.6317V50.2024C195.332 50.2562 195.315 50.3019 195.281 50.3396C195.246 50.3773 195.205 50.3961 195.156 50.3961H193.813C193.764 50.3961 193.723 50.3773 193.689 50.3396C193.655 50.3019 193.638 50.2562 193.638 50.2024V39.3204C193.638 39.2666 193.655 39.2209 193.689 39.1832C193.723 39.1455 193.764 39.1267 193.813 39.1267H196.555C197.07 39.1267 197.526 39.2639 197.92 39.5383C198.315 39.8127 198.62 40.1974 198.839 40.6978C199.059 41.1982 199.168 41.7685 199.168 42.4115C199.168 43.076 199.051 43.6517 198.817 44.1332C198.583 44.6148 198.259 44.9807 197.84 45.2282C197.801 45.2389 197.786 45.2712 197.796 45.325L199.224 50.1701C199.234 50.1916 199.239 50.2185 199.239 50.2508C199.239 50.3477 199.185 50.3961 199.078 50.3961H197.679C197.582 50.3961 197.521 50.3423 197.491 50.2347ZM195.332 40.8162V44.0202C195.332 44.074 195.356 44.1009 195.405 44.1009H196.295C196.646 44.1009 196.928 43.9503 197.148 43.6517C197.367 43.353 197.477 42.9441 197.477 42.4276C197.477 41.9138 197.367 41.5022 197.148 41.1955C196.928 40.8888 196.646 40.7355 196.295 40.7355H195.405C195.356 40.7355 195.332 40.7624 195.332 40.8162Z" fill="white"/>
<path d="M214.066 49.7262C213.566 49.1962 213.315 48.4887 213.315 47.609V41.9111C213.315 41.0314 213.566 40.3265 214.066 39.7939C214.566 39.2612 215.231 38.9976 216.058 38.9976C216.884 38.9976 217.552 39.2639 218.064 39.7939C218.573 40.3238 218.829 41.0368 218.829 41.9272V42.5541C218.829 42.6079 218.812 42.6536 218.778 42.6913C218.744 42.7289 218.702 42.7477 218.654 42.7477H217.313C217.264 42.7477 217.223 42.7289 217.189 42.6913C217.154 42.6536 217.137 42.6079 217.137 42.5541V41.8949C217.137 41.5075 217.037 41.1982 216.838 40.9614C216.638 40.7247 216.379 40.6063 216.058 40.6063C215.736 40.6063 215.48 40.7247 215.285 40.9614C215.09 41.1982 214.992 41.5102 214.992 41.8949V47.6251C214.992 48.0125 215.09 48.3219 215.285 48.5587C215.48 48.7954 215.738 48.9138 216.058 48.9138C216.377 48.9138 216.638 48.7954 216.838 48.5587C217.037 48.3219 217.137 48.0125 217.137 47.6251V46.0809C217.137 46.0271 217.113 46.0002 217.064 46.0002H216.175C216.126 46.0002 216.084 45.9814 216.05 45.9437C216.016 45.9061 215.999 45.8603 215.999 45.8065V44.6309C215.999 44.5771 216.016 44.5314 216.05 44.4937C216.084 44.456 216.126 44.4372 216.175 44.4372H218.654C218.702 44.4372 218.744 44.456 218.778 44.4937C218.812 44.5314 218.829 44.5771 218.829 44.6309V47.609C218.829 48.4887 218.573 49.1935 218.064 49.7262C217.554 50.2562 216.884 50.5225 216.058 50.5225C215.231 50.5225 214.568 50.2589 214.066 49.7262Z" fill="white"/>
<path d="M226.027 49.6294C225.524 49.0348 225.276 48.2466 225.276 47.27V39.3177C225.276 39.2639 225.293 39.2182 225.327 39.1805C225.361 39.1428 225.403 39.124 225.451 39.124H226.794C226.843 39.124 226.885 39.1428 226.919 39.1805C226.953 39.2182 226.97 39.2639 226.97 39.3177V47.4637C226.97 47.8942 227.067 48.2412 227.262 48.5102C227.457 48.7793 227.713 48.9138 228.035 48.9138C228.357 48.9138 228.613 48.7793 228.808 48.5102C229.003 48.2412 229.1 47.8942 229.1 47.4637V39.3177C229.1 39.2639 229.117 39.2182 229.151 39.1805C229.186 39.1428 229.227 39.124 229.276 39.124H230.616C230.665 39.124 230.707 39.1428 230.741 39.1805C230.775 39.2182 230.792 39.2639 230.792 39.3177V47.27C230.792 48.2466 230.538 49.0321 230.034 49.6294C229.529 50.2266 228.861 50.5225 228.035 50.5225C227.197 50.5225 226.529 50.2266 226.027 49.6294Z" fill="white"/>
<path d="M237.463 50.3396C237.429 50.3019 237.412 50.2562 237.412 50.2024V39.3204C237.412 39.2666 237.429 39.2209 237.463 39.1832C237.497 39.1455 237.538 39.1267 237.587 39.1267H238.93C238.979 39.1267 239.02 39.1455 239.054 39.1832C239.089 39.2209 239.106 39.2666 239.106 39.3204V50.2024C239.106 50.2562 239.089 50.3019 239.054 50.3396C239.02 50.3773 238.979 50.3961 238.93 50.3961H237.587C237.538 50.3961 237.497 50.3773 237.463 50.3396Z" fill="white"/>
<path d="M245.837 50.3396C245.803 50.3019 245.786 50.2562 245.786 50.2024V39.3204C245.786 39.2666 245.803 39.2209 245.837 39.1832C245.871 39.1455 245.913 39.1267 245.962 39.1267H248.455C249.291 39.1267 249.959 39.4065 250.461 39.9634C250.961 40.5229 251.212 41.2681 251.212 42.2016V47.3211C251.212 48.2547 250.961 48.9999 250.461 49.5594C249.962 50.119 249.291 50.3961 248.455 50.3961H245.962C245.913 50.3961 245.871 50.3773 245.837 50.3396ZM247.551 48.7846L248.426 48.7685C248.748 48.7685 249.006 48.6259 249.206 48.3408C249.406 48.0556 249.511 47.6789 249.52 47.2055V42.3146C249.52 41.8331 249.42 41.4484 249.221 41.1632C249.021 40.878 248.75 40.7355 248.411 40.7355H247.551C247.502 40.7355 247.478 40.7624 247.478 40.8162V48.7039C247.478 48.7577 247.502 48.7846 247.551 48.7846Z" fill="white"/>
<path d="M262.755 40.679C262.721 40.7166 262.68 40.7355 262.631 40.7355H259.482C259.433 40.7355 259.408 40.7624 259.408 40.8162V43.8588C259.408 43.9126 259.433 43.9395 259.482 43.9395H261.349C261.397 43.9395 261.439 43.9584 261.473 43.996C261.507 44.0337 261.524 44.0794 261.524 44.1332V45.3734C261.524 45.4272 261.507 45.473 261.473 45.5106C261.439 45.5483 261.397 45.5671 261.349 45.5671H259.482C259.433 45.5671 259.408 45.594 259.408 45.6478V48.7066C259.408 48.7604 259.433 48.7873 259.482 48.7873H262.631C262.68 48.7873 262.721 48.8062 262.755 48.8438C262.789 48.8815 262.806 48.9272 262.806 48.981V50.2051C262.806 50.2589 262.789 50.3046 262.755 50.3423C262.721 50.38 262.68 50.3988 262.631 50.3988H257.89C257.841 50.3988 257.8 50.38 257.766 50.3423C257.731 50.3046 257.714 50.2589 257.714 50.2051V39.3231C257.714 39.2693 257.731 39.2236 257.766 39.1859C257.8 39.1482 257.841 39.1294 257.89 39.1294H262.631C262.68 39.1294 262.721 39.1482 262.755 39.1859C262.789 39.2236 262.806 39.2693 262.806 39.3231V40.5472C262.806 40.5956 262.789 40.6413 262.755 40.679Z" fill="white"/>
<path d="M50.654 50.3963H49.5035C49.3695 50.3963 49.2598 50.2753 49.2598 50.1273V7.22081C49.2598 7.07284 49.3695 6.95178 49.5035 6.95178H50.654C50.7881 6.95178 50.8978 7.07284 50.8978 7.22081V50.1246C50.8978 50.2753 50.7905 50.3963 50.654 50.3963Z" fill="white"/>
</svg>
