<svg width="53" height="53" viewBox="0 0 53 53" fill="none" xmlns="http://www.w3.org/2000/svg">
<g id="subway:time" clip-path="url(#clip0_95_2624)">
<path id="Vector" d="M26.5 0C11.8629 0 0 11.8629 0 26.5C0 41.1371 11.8629 53 26.5 53C41.1371 53 53 41.1371 53 26.5C53 11.8629 41.1371 0 26.5 0ZM26.5 48.5799C14.3059 48.5799 4.42012 38.6941 4.42012 26.5C4.42012 14.3059 14.3059 4.42012 26.5 4.42012C38.6941 4.42012 48.5799 14.3059 48.5799 26.5C48.5799 38.6941 38.6941 48.5799 26.5 48.5799ZM28.7049 22.0799V8.82988H24.2848V33.125L37.5348 19.875L34.2223 16.5625L28.7049 22.0799Z" fill="white"/>
</g>
<defs>
<clipPath id="clip0_95_2624">
<rect width="53" height="53" fill="white"/>
</clipPath>
</defs>
</svg>
