<svg width="256" height="45" viewBox="0 0 256 45" fill="none" xmlns="http://www.w3.org/2000/svg">
<path d="M19.0734 10.732C18.9429 10.8625 18.7861 10.9267 18.6033 10.9267H6.69814C6.51294 10.9267 6.42034 11.0193 6.42034 11.2045V21.6684C6.42034 21.8536 6.51294 21.9462 6.69814 21.9462H13.7287C13.9139 21.9462 14.0706 22.0103 14.1988 22.1409C14.327 22.2715 14.3935 22.4282 14.3935 22.611V26.8754C14.3935 27.0606 14.3294 27.2173 14.1988 27.3455C14.0682 27.4761 13.9115 27.5402 13.7287 27.5402H6.69814C6.51294 27.5402 6.42034 27.6328 6.42034 27.818V43.4866C6.42034 43.6718 6.35623 43.8285 6.22564 43.9567C6.09505 44.0873 5.93834 44.1514 5.75551 44.1514H0.664829C0.479627 44.1514 0.322916 44.0873 0.1947 43.9567C0.0641083 43.8285 0 43.6718 0 43.4866V6.05204C0 5.86684 0.0641083 5.71013 0.1947 5.58191C0.322916 5.45369 0.479627 5.38721 0.664829 5.38721H18.6033C18.7885 5.38721 18.9452 5.45132 19.0734 5.58191C19.2017 5.7125 19.2681 5.86921 19.2681 6.05204V10.2595C19.2681 10.4447 19.2017 10.6014 19.0734 10.732Z" fill="#A9DCEE"/>
<path d="M19.2158 10.2599V6.05253C19.2158 5.86733 19.2799 5.71061 19.4105 5.5824C19.5411 5.45418 19.6978 5.3877 19.8806 5.3877H37.8761C38.0613 5.3877 38.218 5.45181 38.3462 5.5824C38.4768 5.71299 38.5409 5.8697 38.5409 6.05253V43.48C38.5409 43.6652 38.4768 43.8219 38.3462 43.9501C38.218 44.0807 38.0613 44.1448 37.8761 44.1448H19.8806C19.6954 44.1448 19.5387 44.0807 19.4105 43.9501C19.2823 43.8219 19.2158 43.6652 19.2158 43.48V39.2726C19.2158 39.0874 19.2799 38.9306 19.4105 38.8024C19.5411 38.6742 19.6978 38.6077 19.8806 38.6077H31.8404C32.0256 38.6077 32.1182 38.5151 32.1182 38.3299V27.809C32.1182 27.6238 32.0256 27.5312 31.8404 27.5312H24.7529C24.5677 27.5312 24.411 27.4671 24.2828 27.3365C24.1545 27.2083 24.0881 27.0516 24.0881 26.8664V22.6067C24.0881 22.4215 24.1522 22.2648 24.2828 22.1366C24.4134 22.0084 24.5701 21.9419 24.7529 21.9419H31.8404C32.0256 21.9419 32.1182 21.8493 32.1182 21.6641V11.2002C32.1182 11.015 32.0256 10.9224 31.8404 10.9224H19.8806C19.6954 10.9224 19.5387 10.8583 19.4105 10.7277C19.2799 10.6018 19.2158 10.4451 19.2158 10.2599Z" fill="white"/>
<path d="M68.7587 8.08699C68.6922 8.15347 68.6115 8.18672 68.5189 8.18672H62.4262C62.3313 8.18672 62.2838 8.23421 62.2838 8.32918V13.6834C62.2838 13.7784 62.3313 13.8259 62.4262 13.8259H66.0234C66.1184 13.8259 66.1968 13.8591 66.2632 13.9256C66.3297 13.9921 66.363 14.0728 66.363 14.1654V16.3475C66.363 16.4425 66.3297 16.5232 66.2632 16.5873C66.1968 16.6538 66.116 16.687 66.0234 16.687H62.4262C62.3313 16.687 62.2838 16.7345 62.2838 16.8295V24.8478C62.2838 24.9428 62.2505 25.0235 62.1841 25.0876C62.1176 25.1541 62.0368 25.1873 61.9442 25.1873H59.3395C59.2446 25.1873 59.1638 25.1541 59.0997 25.0876C59.0332 25.0211 59 24.9404 59 24.8478V5.69599C59 5.60101 59.0332 5.52028 59.0997 5.45617C59.1662 5.38969 59.2469 5.35645 59.3395 5.35645H68.5189C68.6139 5.35645 68.6922 5.38969 68.7587 5.45617C68.8252 5.52266 68.8585 5.60339 68.8585 5.69599V7.84955C68.8585 7.93978 68.8252 8.02051 68.7587 8.08699Z" fill="white"/>
<path d="M71.8196 23.8388C70.8461 22.7894 70.3594 21.4075 70.3594 19.6884V5.69378C70.3594 5.59881 70.3926 5.51807 70.4591 5.45397C70.5256 5.38748 70.6063 5.35425 70.6989 5.35425H73.306C73.401 5.35425 73.4793 5.38748 73.5458 5.45397C73.6123 5.52045 73.6455 5.60118 73.6455 5.69378V20.0303C73.6455 20.7854 73.8331 21.4003 74.213 21.8728C74.5905 22.3453 75.0915 22.5804 75.7136 22.5804C76.3357 22.5804 76.8367 22.3453 77.2142 21.8728C77.5918 21.4003 77.7817 20.7877 77.7817 20.0303V5.69378C77.7817 5.59881 77.815 5.51807 77.8814 5.45397C77.9479 5.38748 78.0286 5.35425 78.1212 5.35425H80.7283C80.8233 5.35425 80.9017 5.38748 80.9681 5.45397C81.0346 5.52045 81.0679 5.60118 81.0679 5.69378V19.6884C81.0679 21.4075 80.5764 22.7917 79.5957 23.8388C78.6127 24.8883 77.3187 25.4107 75.7136 25.4107C74.0895 25.4107 72.7907 24.8859 71.8196 23.8388ZM74.1275 3.42624C74.0705 3.35026 74.08 3.25529 74.156 3.14369L75.8276 0.22557C75.9036 0.0736089 76.0437 0 76.2526 0H78.2922C78.4442 0 78.5368 0.042741 78.5748 0.128219C78.6127 0.213697 78.5937 0.313421 78.5178 0.425017L76.4212 3.34314C76.3262 3.47611 76.1956 3.54259 76.0247 3.54259H74.4101C74.2795 3.54021 74.1845 3.50223 74.1275 3.42624Z" fill="white"/>
<path d="M94.1448 5.45178C94.2113 5.51826 94.2445 5.59899 94.2445 5.69159V7.84516C94.2445 7.94013 94.2113 8.02086 94.1448 8.08497C94.0783 8.15145 93.9976 8.18469 93.905 8.18469H90.3078C90.2128 8.18469 90.1653 8.23218 90.1653 8.32716V24.8434C90.1653 24.9384 90.1321 25.0191 90.0656 25.0832C89.9991 25.1497 89.9184 25.1829 89.8258 25.1829H87.2187C87.1238 25.1829 87.043 25.1497 86.9789 25.0832C86.9124 25.0167 86.8792 24.936 86.8792 24.8434V8.32716C86.8792 8.23218 86.8317 8.18469 86.7367 8.18469H83.3366C83.2416 8.18469 83.1609 8.15145 83.0968 8.08497C83.0303 8.01849 82.9971 7.93776 82.9971 7.84516V5.69159C82.9971 5.59661 83.0303 5.51589 83.0968 5.45178C83.1633 5.3853 83.244 5.35205 83.3366 5.35205H93.905C93.9976 5.35205 94.0783 5.3853 94.1448 5.45178Z" fill="white"/>
<path d="M105.535 23.7675C104.523 24.7125 103.208 25.185 101.582 25.185H96.5954C96.5004 25.185 96.4197 25.1518 96.3556 25.0853C96.2891 25.0188 96.2559 24.9381 96.2559 24.8455V5.69366C96.2559 5.59869 96.2891 5.51795 96.3556 5.45385C96.4221 5.38736 96.5028 5.35413 96.5954 5.35413H101.071C102.866 5.35413 104.272 5.80763 105.293 6.71464C106.314 7.62166 106.822 8.94419 106.822 10.6822C106.822 12.6269 106.133 14.0159 104.754 14.8469C104.659 14.9039 104.64 14.9609 104.697 15.0179C105.433 15.4904 106.01 16.122 106.425 16.915C106.841 17.708 107.047 18.6531 107.047 19.7476C107.05 21.4833 106.544 22.8225 105.535 23.7675ZM99.542 8.32685V13.5956C99.542 13.6906 99.5895 13.7381 99.6845 13.7381H101.13C101.905 13.7381 102.51 13.503 102.945 13.0305C103.379 12.558 103.595 11.8884 103.595 11.0194C103.595 10.1124 103.377 9.41433 102.945 8.92283C102.51 8.43133 101.905 8.18677 101.13 8.18677H99.6845C99.5895 8.18439 99.542 8.23188 99.542 8.32685ZM103.113 21.5284C103.548 20.9989 103.764 20.2534 103.764 19.2894C103.764 18.3064 103.545 17.5371 103.113 16.9815C102.679 16.4235 102.083 16.1457 101.328 16.1457H99.6845C99.5895 16.1457 99.542 16.1932 99.542 16.2882V22.1814C99.542 22.2764 99.5895 22.3239 99.6845 22.3239H101.328C102.083 22.3215 102.676 22.0579 103.113 21.5284Z" fill="white"/>
<path d="M110.206 23.9383C109.214 22.9553 108.72 21.6541 108.72 20.0277V10.5088C108.72 8.88468 109.216 7.58114 110.206 6.59815C111.199 5.61515 112.504 5.12366 114.131 5.12366C115.755 5.12366 117.068 5.61515 118.07 6.59815C119.072 7.58114 119.571 8.88231 119.571 10.5088V20.0277C119.571 21.6518 119.07 22.9553 118.07 23.9383C117.068 24.9213 115.755 25.4104 114.131 25.4104C112.507 25.4104 111.199 24.9189 110.206 23.9383ZM115.689 21.9106C116.085 21.4666 116.285 20.8872 116.285 20.1678V10.3663C116.285 9.64924 116.085 9.06751 115.689 8.6235C115.292 8.17949 114.772 7.95867 114.131 7.95867C113.487 7.95867 112.975 8.18186 112.588 8.6235C112.201 9.06751 112.006 9.64924 112.006 10.3663V20.1678C112.006 20.8848 112.198 21.4666 112.588 21.9106C112.975 22.3546 113.49 22.5754 114.131 22.5754C114.772 22.5778 115.292 22.3546 115.689 21.9106Z" fill="white"/>
<path d="M122.106 25.0853C122.039 25.0188 122.006 24.9381 122.006 24.8455V5.69366C122.006 5.59869 122.039 5.51795 122.106 5.45385C122.172 5.38736 122.253 5.35413 122.345 5.35413H124.952C125.047 5.35413 125.126 5.38736 125.192 5.45385C125.259 5.52033 125.292 5.60106 125.292 5.69366V22.2099C125.292 22.3049 125.339 22.3524 125.434 22.3524H131.553C131.648 22.3524 131.727 22.3856 131.793 22.4521C131.86 22.5186 131.893 22.5993 131.893 22.6919V24.8455C131.893 24.9404 131.86 25.0212 131.793 25.0853C131.727 25.1518 131.646 25.185 131.553 25.185H122.345C122.25 25.185 122.172 25.1518 122.106 25.0853Z" fill="white"/>
<path d="M148.651 8.08699C148.585 8.15347 148.504 8.18672 148.412 8.18672H142.293C142.198 8.18672 142.15 8.23421 142.15 8.32918V13.6834C142.15 13.7784 142.198 13.8259 142.293 13.8259H145.919C146.014 13.8259 146.092 13.8591 146.158 13.9256C146.225 13.9921 146.258 14.0728 146.258 14.1654V16.3475C146.258 16.4425 146.225 16.5232 146.158 16.5873C146.092 16.6538 146.011 16.687 145.919 16.687H142.293C142.198 16.687 142.15 16.7345 142.15 16.8295V22.2122C142.15 22.3072 142.198 22.3547 142.293 22.3547H148.412C148.507 22.3547 148.585 22.3879 148.651 22.4544C148.718 22.5209 148.751 22.6016 148.751 22.6942V24.8478C148.751 24.9428 148.718 25.0235 148.651 25.0876C148.585 25.1541 148.504 25.1873 148.412 25.1873H139.204C139.109 25.1873 139.028 25.1541 138.964 25.0876C138.898 25.0211 138.864 24.9404 138.864 24.8478V5.69599C138.864 5.60101 138.898 5.52028 138.964 5.45617C139.03 5.38969 139.111 5.35645 139.204 5.35645H148.412C148.507 5.35645 148.585 5.38969 148.651 5.45617C148.718 5.52266 148.751 5.60339 148.751 5.69599V7.84955C148.751 7.93978 148.718 8.02051 148.651 8.08699Z" fill="white"/>
<path d="M150.25 25.0712C150.212 24.9952 150.212 24.9003 150.25 24.7887L154.132 15.3552C154.151 15.2982 154.151 15.2412 154.132 15.1843L150.25 5.75082C150.231 5.71283 150.222 5.65585 150.222 5.57987C150.222 5.42791 150.317 5.35193 150.504 5.35193H153.194C153.382 5.35193 153.505 5.4469 153.562 5.63448L155.83 11.7818C155.849 11.8387 155.877 11.8672 155.915 11.8672C155.953 11.8672 155.982 11.8387 156.001 11.7818L158.24 5.63448C158.297 5.4469 158.418 5.35193 158.608 5.35193H161.272C161.405 5.35193 161.488 5.38992 161.526 5.4659C161.564 5.54188 161.564 5.63686 161.526 5.74845L157.644 15.1819C157.625 15.2389 157.625 15.2959 157.644 15.3528L161.526 24.7863C161.545 24.8243 161.555 24.8812 161.555 24.9572C161.555 25.1092 161.46 25.1828 161.272 25.1828H158.637C158.428 25.1828 158.297 25.0878 158.24 24.9002L156.001 18.7815C155.982 18.7245 155.953 18.696 155.915 18.696C155.877 18.696 155.849 18.7245 155.83 18.7815L153.562 24.9002C153.505 25.0902 153.372 25.1828 153.166 25.1828H150.504C150.374 25.1852 150.288 25.1472 150.25 25.0712Z" fill="white"/>
<path d="M171.939 6.0593C172.704 6.5508 173.3 7.23937 173.725 8.12739C174.15 9.01541 174.361 10.0269 174.361 11.1595C174.361 12.8595 173.912 14.2296 173.015 15.2672C172.117 16.3071 170.932 16.8248 169.46 16.8248H167.053C166.958 16.8248 166.91 16.8723 166.91 16.9672V24.8431C166.91 24.938 166.877 25.0188 166.81 25.0829C166.744 25.1494 166.663 25.1826 166.571 25.1826H163.964C163.869 25.1826 163.788 25.1494 163.724 25.0829C163.657 25.0164 163.624 24.9357 163.624 24.8431V5.66278C163.624 5.5678 163.657 5.48945 163.724 5.42296C163.79 5.35648 163.871 5.32324 163.964 5.32324H169.289C170.291 5.32324 171.175 5.57018 171.939 6.0593ZM170.439 13.4413C170.864 12.9023 171.077 12.171 171.077 11.245C171.077 10.2999 170.864 9.54965 170.439 8.99166C170.013 8.43368 169.451 8.15588 168.753 8.15588H167.053C166.958 8.15588 166.91 8.20337 166.91 8.29835V14.1061C166.91 14.2011 166.958 14.2486 167.053 14.2486H168.753C169.451 14.2486 170.013 13.9779 170.439 13.4413Z" fill="white"/>
<path d="M186.107 8.08699C186.04 8.15347 185.96 8.18672 185.867 8.18672H179.746C179.651 8.18672 179.604 8.23421 179.604 8.32918V13.6834C179.604 13.7784 179.651 13.8259 179.746 13.8259H183.372C183.467 13.8259 183.545 13.8591 183.611 13.9256C183.678 13.9921 183.711 14.0728 183.711 14.1654V16.3475C183.711 16.4425 183.678 16.5232 183.611 16.5873C183.545 16.6538 183.464 16.687 183.372 16.687H179.746C179.651 16.687 179.604 16.7345 179.604 16.8295V22.2122C179.604 22.3072 179.651 22.3547 179.746 22.3547H185.865C185.96 22.3547 186.038 22.3879 186.105 22.4544C186.171 22.5209 186.204 22.6016 186.204 22.6942V24.8478C186.204 24.9428 186.171 25.0235 186.105 25.0876C186.038 25.1541 185.957 25.1873 185.865 25.1873H176.657C176.562 25.1873 176.481 25.1541 176.417 25.0876C176.351 25.0211 176.317 24.9404 176.317 24.8478V5.69599C176.317 5.60101 176.351 5.52028 176.417 5.45617C176.484 5.38969 176.564 5.35645 176.657 5.35645H185.865C185.96 5.35645 186.038 5.38969 186.105 5.45617C186.171 5.52266 186.204 5.60339 186.204 5.69599V7.84955C186.207 7.93978 186.173 8.02051 186.107 8.08699Z" fill="white"/>
<path d="M195.837 24.9002L193.429 16.768C193.391 16.692 193.344 16.654 193.287 16.654H191.786C191.691 16.654 191.644 16.7015 191.644 16.7965V24.8433C191.644 24.9382 191.61 25.019 191.544 25.0831C191.477 25.1496 191.397 25.1828 191.304 25.1828H188.697C188.602 25.1828 188.521 25.1496 188.457 25.0831C188.391 25.0166 188.357 24.9359 188.357 24.8433V5.69146C188.357 5.59649 188.391 5.51576 188.457 5.45166C188.524 5.38517 188.604 5.35193 188.697 5.35193H194.023C195.022 5.35193 195.908 5.59174 196.673 6.07374C197.437 6.55574 198.033 7.23482 198.458 8.11334C198.883 8.99186 199.094 9.9986 199.094 11.1312C199.094 12.3018 198.869 13.3132 198.415 14.1633C197.962 15.0133 197.33 15.6544 196.518 16.0889C196.442 16.1079 196.414 16.1649 196.433 16.2599L199.208 24.7887C199.227 24.8266 199.237 24.8741 199.237 24.9311C199.237 25.1021 199.132 25.1852 198.926 25.1852H196.205C196.017 25.1852 195.894 25.0902 195.837 24.9002ZM191.644 8.32703V13.9638C191.644 14.0588 191.691 14.1063 191.786 14.1063H193.515C194.194 14.1063 194.747 13.8427 195.172 13.3132C195.597 12.7838 195.811 12.0667 195.811 11.1597C195.811 10.2527 195.599 9.53085 195.172 8.99186C194.747 8.45287 194.194 8.18457 193.515 8.18457H191.786C191.691 8.18457 191.644 8.23206 191.644 8.32703Z" fill="white"/>
<path d="M201.233 25.0853C201.166 25.0188 201.133 24.9381 201.133 24.8455V5.69366C201.133 5.59869 201.166 5.51795 201.233 5.45385C201.299 5.38736 201.38 5.35413 201.472 5.35413H204.079C204.174 5.35413 204.253 5.38736 204.319 5.45385C204.386 5.52033 204.419 5.60106 204.419 5.69366V24.8455C204.419 24.9404 204.386 25.0212 204.319 25.0853C204.253 25.1518 204.172 25.185 204.079 25.185H201.472C201.38 25.185 201.299 25.1518 201.233 25.0853Z" fill="white"/>
<path d="M216.985 8.08699C216.919 8.15347 216.838 8.18672 216.746 8.18672H210.627C210.532 8.18672 210.484 8.23421 210.484 8.32918V13.6834C210.484 13.7784 210.532 13.8259 210.627 13.8259H214.253C214.348 13.8259 214.428 13.8591 214.492 13.9256C214.559 13.9921 214.592 14.0728 214.592 14.1654V16.3475C214.592 16.4425 214.559 16.5232 214.492 16.5873C214.426 16.6538 214.345 16.687 214.253 16.687H210.627C210.532 16.687 210.484 16.7345 210.484 16.8295V22.2122C210.484 22.3072 210.532 22.3547 210.627 22.3547H216.746C216.841 22.3547 216.919 22.3879 216.985 22.4544C217.052 22.5209 217.085 22.6016 217.085 22.6942V24.8478C217.085 24.9428 217.052 25.0235 216.985 25.0876C216.919 25.1541 216.838 25.1873 216.746 25.1873H207.538C207.443 25.1873 207.362 25.1541 207.298 25.0876C207.231 25.0211 207.198 24.9404 207.198 24.8478V5.69599C207.198 5.60101 207.231 5.52028 207.298 5.45617C207.364 5.38969 207.445 5.35645 207.538 5.35645H216.746C216.841 5.35645 216.919 5.38969 216.985 5.45617C217.052 5.52266 217.085 5.60339 217.085 5.69599V7.84955C217.083 7.93978 217.05 8.02051 216.985 8.08699Z" fill="white"/>
<path d="M227.385 5.45178C227.452 5.3853 227.533 5.35205 227.628 5.35205H230.206C230.301 5.35205 230.379 5.3853 230.446 5.45178C230.512 5.51826 230.546 5.59899 230.546 5.69159V24.8434C230.546 24.9384 230.512 25.0191 230.446 25.0832C230.379 25.1497 230.299 25.1829 230.206 25.1829H227.231C227.043 25.1829 226.92 25.0879 226.863 24.9004L222.641 12.8884C222.622 12.8314 222.589 12.8076 222.542 12.8171C222.494 12.8266 222.47 12.8599 222.47 12.9168L222.499 24.8434C222.499 24.9384 222.466 25.0191 222.399 25.0832C222.333 25.1497 222.252 25.1829 222.159 25.1829H219.581C219.486 25.1829 219.405 25.1497 219.341 25.0832C219.274 25.0167 219.241 24.936 219.241 24.8434V5.69159C219.241 5.59661 219.274 5.51589 219.341 5.45178C219.407 5.3853 219.488 5.35205 219.581 5.35205H222.499C222.686 5.35205 222.81 5.44703 222.867 5.6346L227.117 17.5611C227.136 17.6181 227.169 17.6419 227.217 17.6324C227.264 17.6229 227.288 17.5896 227.288 17.5327V5.68922C227.286 5.59899 227.319 5.51826 227.385 5.45178Z" fill="white"/>
<path d="M234.438 23.9509C233.464 22.9775 232.978 21.6882 232.978 20.0831V10.4217C232.978 8.79762 233.464 7.50833 234.438 6.55382C235.411 5.59932 236.701 5.12207 238.306 5.12207C239.93 5.12207 241.233 5.59932 242.216 6.55382C243.199 7.50833 243.691 8.79762 243.691 10.4217V10.7612C243.691 10.8562 243.658 10.9417 243.591 11.0153C243.525 11.0913 243.444 11.1293 243.351 11.1293L240.716 11.2432C240.49 11.2432 240.376 11.1293 240.376 10.9037V10.1961C240.376 9.53605 240.189 8.99707 239.809 8.58155C239.431 8.16603 238.93 7.95946 238.308 7.95946C237.703 7.95946 237.213 8.16841 236.836 8.58155C236.458 8.99707 236.268 9.53605 236.268 10.1961V20.3395C236.268 21.002 236.456 21.5386 236.836 21.9541C237.213 22.3696 237.705 22.5762 238.308 22.5762C238.933 22.5762 239.431 22.3696 239.809 21.9541C240.186 21.5386 240.376 20.9996 240.376 20.3395V19.6319C240.376 19.537 240.409 19.4586 240.476 19.3921C240.542 19.3256 240.623 19.2924 240.716 19.2924L243.351 19.4064C243.446 19.4064 243.525 19.4396 243.591 19.5061C243.658 19.5726 243.691 19.6533 243.691 19.7459V20.0855C243.691 21.6905 243.199 22.9798 242.216 23.9533C241.233 24.9268 239.932 25.4112 238.306 25.4112C236.698 25.4112 235.409 24.9244 234.438 23.9509Z" fill="white"/>
<path d="M255.77 8.08699C255.703 8.15347 255.622 8.18672 255.53 8.18672H249.411C249.316 8.18672 249.269 8.23421 249.269 8.32918V13.6834C249.269 13.7784 249.316 13.8259 249.411 13.8259H253.037C253.132 13.8259 253.212 13.8591 253.277 13.9256C253.343 13.9921 253.376 14.0728 253.376 14.1654V16.3475C253.376 16.4425 253.343 16.5232 253.277 16.5873C253.21 16.6538 253.129 16.687 253.037 16.687H249.411C249.316 16.687 249.269 16.7345 249.269 16.8295V22.2122C249.269 22.3072 249.316 22.3547 249.411 22.3547H255.53C255.625 22.3547 255.703 22.3879 255.77 22.4544C255.836 22.5209 255.869 22.6016 255.869 22.6942V24.8478C255.869 24.9428 255.836 25.0235 255.77 25.0876C255.703 25.1541 255.622 25.1873 255.53 25.1873H246.322C246.227 25.1873 246.146 25.1541 246.082 25.0876C246.016 25.0211 245.982 24.9404 245.982 24.8478V5.69599C245.982 5.60101 246.016 5.52028 246.082 5.45617C246.149 5.38969 246.229 5.35645 246.322 5.35645H255.53C255.625 5.35645 255.703 5.38969 255.77 5.45617C255.836 5.52266 255.869 5.60339 255.869 5.69599V7.84955C255.869 7.93978 255.836 8.02051 255.77 8.08699Z" fill="white"/>
<path d="M64.5062 33.8033C64.5394 33.8365 64.556 33.8769 64.556 33.9244V35.0047C64.556 35.0522 64.5394 35.0926 64.5062 35.1258C64.4729 35.159 64.4326 35.1757 64.3851 35.1757H62.5805C62.5331 35.1757 62.5093 35.1994 62.5093 35.2469V43.5311C62.5093 43.5786 62.4927 43.619 62.4594 43.6522C62.4262 43.6855 62.3858 43.7021 62.3383 43.7021H61.0301C60.9826 43.7021 60.9422 43.6855 60.909 43.6522C60.8757 43.619 60.8591 43.5786 60.8591 43.5311V35.2469C60.8591 35.1994 60.8354 35.1757 60.7879 35.1757H59.0831C59.0356 35.1757 58.9952 35.159 58.962 35.1258C58.9287 35.0926 58.9121 35.0522 58.9121 35.0047V33.9244C58.9121 33.8769 58.9287 33.8365 58.962 33.8033C58.9952 33.77 59.0356 33.7534 59.0831 33.7534H64.3827C64.4326 33.7534 64.4729 33.77 64.5062 33.8033Z" fill="white"/>
<path d="M74.3248 33.8033C74.358 33.77 74.3984 33.7534 74.4459 33.7534H75.7542C75.8017 33.7534 75.842 33.77 75.8753 33.8033C75.9085 33.8365 75.9251 33.8769 75.9251 33.9244V43.5288C75.9251 43.5762 75.9085 43.6166 75.8753 43.6499C75.842 43.6831 75.8017 43.6997 75.7542 43.6997H74.4459C74.3984 43.6997 74.358 43.6831 74.3248 43.6499C74.2916 43.6166 74.2749 43.5762 74.2749 43.5288V39.5089C74.2749 39.4614 74.2512 39.4377 74.2037 39.4377H72.3992C72.3517 39.4377 72.3279 39.4614 72.3279 39.5089V43.5288C72.3279 43.5762 72.3113 43.6166 72.2781 43.6499C72.2448 43.6831 72.2045 43.6997 72.157 43.6997H70.8487C70.8012 43.6997 70.7608 43.6831 70.7276 43.6499C70.6944 43.6166 70.6777 43.5762 70.6777 43.5288V33.9244C70.6777 33.8769 70.6944 33.8365 70.7276 33.8033C70.7608 33.77 70.8012 33.7534 70.8487 33.7534H72.157C72.2045 33.7534 72.2448 33.77 72.2781 33.8033C72.3113 33.8365 72.3279 33.8769 72.3279 33.9244V37.9323C72.3279 37.9798 72.3517 38.0036 72.3992 38.0036H74.2037C74.2512 38.0036 74.2749 37.9798 74.2749 37.9323V33.9244C74.2749 33.8769 74.2916 33.8365 74.3248 33.8033Z" fill="white"/>
<path d="M87.2804 35.1246C87.2471 35.1578 87.2067 35.1745 87.1593 35.1745H84.0915C84.0441 35.1745 84.0203 35.1982 84.0203 35.2457V37.9311C84.0203 37.9786 84.0441 38.0024 84.0915 38.0024H85.9103C85.9578 38.0024 85.9982 38.019 86.0314 38.0522C86.0647 38.0855 86.0813 38.1258 86.0813 38.1733V39.2679C86.0813 39.3154 86.0647 39.3558 86.0314 39.389C85.9982 39.4223 85.9578 39.4389 85.9103 39.4389H84.0915C84.0441 39.4389 84.0203 39.4626 84.0203 39.5101V42.2098C84.0203 42.2573 84.0441 42.281 84.0915 42.281H87.1593C87.2067 42.281 87.2471 42.2976 87.2804 42.3309C87.3136 42.3641 87.3302 42.4045 87.3302 42.452V43.5323C87.3302 43.5798 87.3136 43.6202 87.2804 43.6534C87.2471 43.6867 87.2067 43.7033 87.1593 43.7033H82.5411C82.4936 43.7033 82.4532 43.6867 82.42 43.6534C82.3867 43.6202 82.3701 43.5798 82.3701 43.5323V33.9279C82.3701 33.8804 82.3867 33.8401 82.42 33.8068C82.4532 33.7736 82.4936 33.757 82.5411 33.757H87.1593C87.2067 33.757 87.2471 33.7736 87.2804 33.8068C87.3136 33.8401 87.3302 33.8804 87.3302 33.9279V35.0083C87.3302 35.051 87.3136 35.0914 87.2804 35.1246Z" fill="white"/>
<path d="M105.995 42.9884C105.489 43.4633 104.826 43.6984 104.012 43.6984H101.512C101.464 43.6984 101.424 43.6818 101.391 43.6485C101.357 43.6153 101.341 43.5749 101.341 43.5274V33.923C101.341 33.8755 101.357 33.8352 101.391 33.8019C101.424 33.7687 101.464 33.7521 101.512 33.7521H103.758C104.658 33.7521 105.363 33.98 105.876 34.4335C106.389 34.887 106.643 35.5519 106.643 36.4233C106.643 37.3991 106.296 38.0948 105.605 38.5127C105.558 38.5412 105.548 38.5697 105.577 38.5982C105.947 38.8356 106.234 39.1514 106.443 39.5503C106.652 39.9492 106.757 40.4217 106.757 40.9702C106.754 41.844 106.503 42.5159 105.995 42.9884ZM102.991 35.2456V37.8883C102.991 37.9357 103.015 37.9595 103.062 37.9595H103.786C104.173 37.9595 104.477 37.8408 104.696 37.6033C104.914 37.3659 105.023 37.0311 105.023 36.5942C105.023 36.1383 104.914 35.7893 104.696 35.5424C104.477 35.2954 104.176 35.172 103.786 35.172H103.062C103.015 35.1743 102.991 35.1981 102.991 35.2456ZM104.781 41.8677C105 41.6018 105.109 41.229 105.109 40.7446C105.109 40.2531 105 39.8661 104.781 39.5859C104.563 39.3058 104.266 39.1657 103.886 39.1657H103.062C103.015 39.1657 102.991 39.1894 102.991 39.2369V42.193C102.991 42.2405 103.015 42.2642 103.062 42.2642H103.886C104.264 42.2642 104.563 42.1313 104.781 41.8677Z" fill="white"/>
<path d="M117.732 35.1246C117.698 35.1578 117.658 35.1745 117.61 35.1745H114.543C114.495 35.1745 114.471 35.1982 114.471 35.2457V37.9311C114.471 37.9786 114.495 38.0024 114.543 38.0024H116.362C116.409 38.0024 116.449 38.019 116.483 38.0522C116.516 38.0855 116.532 38.1258 116.532 38.1733V39.2679C116.532 39.3154 116.516 39.3558 116.483 39.389C116.449 39.4223 116.409 39.4389 116.362 39.4389H114.543C114.495 39.4389 114.471 39.4626 114.471 39.5101V42.2098C114.471 42.2573 114.495 42.281 114.543 42.281H117.61C117.658 42.281 117.698 42.2976 117.732 42.3309C117.765 42.3641 117.781 42.4045 117.781 42.452V43.5323C117.781 43.5798 117.765 43.6202 117.732 43.6534C117.698 43.6867 117.658 43.7033 117.61 43.7033H112.992C112.945 43.7033 112.904 43.6867 112.871 43.6534C112.838 43.6202 112.821 43.5798 112.821 43.5323V33.9279C112.821 33.8804 112.838 33.8401 112.871 33.8068C112.904 33.7736 112.945 33.757 112.992 33.757H117.61C117.658 33.757 117.698 33.7736 117.732 33.8068C117.765 33.8401 117.781 33.8804 117.781 33.9279V35.0083C117.781 35.051 117.765 35.0914 117.732 35.1246Z" fill="white"/>
<path d="M124.417 43.102C123.933 42.6295 123.693 42.0074 123.693 41.2405V40.8701C123.693 40.8226 123.71 40.7822 123.743 40.749C123.776 40.7157 123.817 40.6991 123.864 40.6991H125.158C125.206 40.6991 125.246 40.7157 125.279 40.749C125.312 40.7822 125.329 40.8226 125.329 40.8701V41.155C125.329 41.5254 125.422 41.8222 125.607 42.0502C125.792 42.2781 126.032 42.3921 126.324 42.3921C126.618 42.3921 126.858 42.2852 127.048 42.0715C127.238 41.8578 127.333 41.5777 127.333 41.2262C127.333 40.9793 127.281 40.768 127.176 40.5875C127.072 40.4071 126.925 40.2361 126.737 40.0771C126.547 39.9156 126.246 39.6829 125.828 39.3813C125.353 39.0394 124.973 38.7379 124.683 38.472C124.394 38.206 124.154 37.8879 123.959 37.5127C123.764 37.1375 123.667 36.7054 123.667 36.2139C123.667 35.428 123.904 34.8035 124.377 34.3381C124.849 33.8751 125.476 33.6425 126.253 33.6425C127.039 33.6425 127.673 33.887 128.157 34.3738C128.639 34.8629 128.881 35.5087 128.881 36.3136V36.6556C128.881 36.703 128.865 36.7434 128.831 36.7766C128.798 36.8099 128.758 36.8265 128.71 36.8265H127.43C127.383 36.8265 127.343 36.8099 127.309 36.7766C127.276 36.7434 127.259 36.703 127.259 36.6556V36.2851C127.259 35.9147 127.167 35.6203 126.982 35.3971C126.796 35.1739 126.552 35.0623 126.25 35.0623C125.965 35.0623 125.735 35.1644 125.555 35.3686C125.374 35.5728 125.284 35.853 125.284 36.2139C125.284 36.5558 125.381 36.8431 125.576 37.0806C125.771 37.318 126.151 37.6433 126.72 38.0612C127.297 38.4862 127.734 38.8352 128.026 39.1059C128.321 39.3766 128.546 39.671 128.708 39.9939C128.869 40.3169 128.95 40.6991 128.95 41.1455C128.95 41.9504 128.708 42.5963 128.226 43.0854C127.741 43.5745 127.107 43.8167 126.322 43.8167C125.533 43.812 124.899 43.5769 124.417 43.102Z" fill="white"/>
<path d="M140.208 33.8034C140.242 33.8366 140.258 33.877 140.258 33.9245V35.0048C140.258 35.0523 140.242 35.0927 140.208 35.1259C140.175 35.1592 140.135 35.1758 140.087 35.1758H138.283C138.235 35.1758 138.211 35.1995 138.211 35.247V43.5313C138.211 43.5787 138.195 43.6191 138.162 43.6524C138.128 43.6856 138.088 43.7022 138.04 43.7022H136.732C136.685 43.7022 136.644 43.6856 136.611 43.6524C136.578 43.6191 136.561 43.5787 136.561 43.5313V35.247C136.561 35.1995 136.538 35.1758 136.49 35.1758H134.785C134.738 35.1758 134.697 35.1592 134.664 35.1259C134.631 35.0927 134.614 35.0523 134.614 35.0048V33.9245C134.614 33.877 134.631 33.8366 134.664 33.8034C134.697 33.7702 134.738 33.7535 134.785 33.7535H140.085C140.135 33.7535 140.175 33.7702 140.208 33.8034Z" fill="white"/>
<path d="M159.417 33.8034C159.451 33.8366 159.467 33.877 159.467 33.9245V35.0048C159.467 35.0523 159.451 35.0927 159.417 35.1259C159.384 35.1592 159.344 35.1758 159.296 35.1758H157.492C157.444 35.1758 157.42 35.1995 157.42 35.247V43.5313C157.42 43.5787 157.404 43.6191 157.371 43.6524C157.337 43.6856 157.297 43.7022 157.249 43.7022H155.941C155.894 43.7022 155.853 43.6856 155.82 43.6524C155.787 43.6191 155.77 43.5787 155.77 43.5313V35.247C155.77 35.1995 155.747 35.1758 155.699 35.1758H153.994C153.947 35.1758 153.906 35.1592 153.873 35.1259C153.84 35.0927 153.823 35.0523 153.823 35.0048V33.9245C153.823 33.877 153.84 33.8366 153.873 33.8034C153.906 33.7702 153.947 33.7535 153.994 33.7535H159.294C159.346 33.7535 159.384 33.7702 159.417 33.8034Z" fill="white"/>
<path d="M165.826 43.0738C165.329 42.5823 165.08 41.9269 165.08 41.1125V36.3376C165.08 35.5232 165.329 34.8703 165.826 34.3764C166.322 33.8849 166.98 33.6379 167.794 33.6379C168.608 33.6379 169.266 33.8849 169.769 34.3764C170.27 34.8679 170.522 35.5232 170.522 36.3376V41.1125C170.522 41.9269 170.27 42.5799 169.769 43.0738C169.266 43.5653 168.608 43.8122 167.794 43.8122C166.98 43.8122 166.324 43.5676 165.826 43.0738ZM168.575 42.0575C168.775 41.8343 168.874 41.5447 168.874 41.1837V36.2664C168.874 35.9055 168.775 35.6158 168.575 35.3926C168.376 35.1694 168.115 35.0578 167.794 35.0578C167.471 35.0578 167.215 35.1694 167.02 35.3926C166.825 35.6158 166.728 35.9079 166.728 36.2664V41.1837C166.728 41.5447 166.825 41.8343 167.02 42.0575C167.215 42.2807 167.471 42.3923 167.794 42.3923C168.117 42.3923 168.376 42.2807 168.575 42.0575Z" fill="white"/>
<path d="M177.534 43.024C177.045 42.4993 176.803 41.8036 176.803 40.9417V33.923C176.803 33.8755 176.819 33.8352 176.853 33.8019C176.886 33.7687 176.926 33.7521 176.974 33.7521H178.282C178.329 33.7521 178.37 33.7687 178.403 33.8019C178.436 33.8352 178.453 33.8755 178.453 33.923V41.1127C178.453 41.4926 178.548 41.7989 178.738 42.0363C178.928 42.2738 179.177 42.3925 179.491 42.3925C179.804 42.3925 180.053 42.2738 180.243 42.0363C180.433 41.7989 180.528 41.4926 180.528 41.1127V33.923C180.528 33.8755 180.545 33.8352 180.578 33.8019C180.611 33.7687 180.652 33.7521 180.699 33.7521H182.005C182.052 33.7521 182.093 33.7687 182.126 33.8019C182.159 33.8352 182.176 33.8755 182.176 33.923V40.9417C182.176 41.8036 181.929 42.4969 181.438 43.024C180.946 43.5512 180.295 43.8123 179.491 43.8123C178.674 43.8123 178.023 43.5512 177.534 43.024Z" fill="white"/>
<path d="M192.376 43.5573L191.167 39.4804C191.148 39.4424 191.125 39.4235 191.096 39.4235H190.344C190.296 39.4235 190.272 39.4472 190.272 39.4947V43.5288C190.272 43.5762 190.256 43.6166 190.222 43.6499C190.189 43.6831 190.149 43.6997 190.101 43.6997H188.793C188.746 43.6997 188.705 43.6831 188.672 43.6499C188.639 43.6166 188.622 43.5762 188.622 43.5288V33.9244C188.622 33.8769 188.639 33.8365 188.672 33.8033C188.705 33.77 188.746 33.7534 188.793 33.7534H191.464C191.965 33.7534 192.409 33.8745 192.794 34.1167C193.179 34.3589 193.475 34.6984 193.689 35.1401C193.903 35.5817 194.01 36.0851 194.01 36.6525C194.01 37.239 193.896 37.7471 193.668 38.1721C193.44 38.5972 193.124 38.9201 192.716 39.1385C192.678 39.148 192.663 39.1765 192.673 39.224L194.064 43.5003C194.074 43.5193 194.078 43.543 194.078 43.5715C194.078 43.657 194.026 43.6997 193.922 43.6997H192.559C192.464 43.6997 192.404 43.6522 192.376 43.5573ZM190.272 35.2445V38.0724C190.272 38.1199 190.296 38.1437 190.344 38.1437H191.21C191.552 38.1437 191.827 38.0107 192.041 37.7471C192.255 37.4836 192.362 37.1227 192.362 36.6668C192.362 36.2133 192.255 35.85 192.041 35.5793C191.827 35.3086 191.552 35.1733 191.21 35.1733H190.344C190.296 35.1733 190.272 35.197 190.272 35.2445Z" fill="white"/>
<path d="M208.522 43.1093C208.036 42.6416 207.791 42.0171 207.791 41.2407V36.2117C207.791 35.4353 208.036 34.8132 208.522 34.3431C209.009 33.873 209.657 33.6403 210.462 33.6403C211.267 33.6403 211.918 33.8753 212.416 34.3431C212.913 34.8108 213.162 35.44 213.162 36.226V36.7792C213.162 36.8267 213.145 36.8671 213.112 36.9003C213.079 36.9335 213.038 36.9502 212.991 36.9502H211.685C211.638 36.9502 211.597 36.9335 211.564 36.9003C211.531 36.8671 211.514 36.8267 211.514 36.7792V36.1975C211.514 35.8556 211.417 35.5825 211.222 35.3736C211.027 35.1646 210.776 35.0602 210.462 35.0602C210.149 35.0602 209.899 35.1646 209.71 35.3736C209.52 35.5825 209.425 35.8579 209.425 36.1975V41.2549C209.425 41.5968 209.52 41.8699 209.71 42.0788C209.899 42.2878 210.151 42.3923 210.462 42.3923C210.773 42.3923 211.027 42.2878 211.222 42.0788C211.417 41.8699 211.514 41.5968 211.514 41.2549V39.892C211.514 39.8445 211.49 39.8208 211.443 39.8208H210.576C210.529 39.8208 210.488 39.8042 210.455 39.7709C210.422 39.7377 210.405 39.6973 210.405 39.6498V38.6122C210.405 38.5647 210.422 38.5244 210.455 38.4911C210.488 38.4579 210.529 38.4413 210.576 38.4413H212.991C213.038 38.4413 213.079 38.4579 213.112 38.4911C213.145 38.5244 213.162 38.5647 213.162 38.6122V41.2407C213.162 42.0171 212.913 42.6392 212.416 43.1093C211.92 43.5771 211.267 43.8121 210.462 43.8121C209.657 43.8121 209.011 43.5794 208.522 43.1093Z" fill="white"/>
<path d="M220.171 43.024C219.682 42.4993 219.439 41.8036 219.439 40.9417V33.923C219.439 33.8755 219.456 33.8352 219.489 33.8019C219.523 33.7687 219.563 33.7521 219.61 33.7521H220.919C220.966 33.7521 221.007 33.7687 221.04 33.8019C221.073 33.8352 221.09 33.8755 221.09 33.923V41.1127C221.09 41.4926 221.185 41.7989 221.375 42.0363C221.565 42.2738 221.814 42.3925 222.127 42.3925C222.441 42.3925 222.69 42.2738 222.88 42.0363C223.07 41.7989 223.165 41.4926 223.165 41.1127V33.923C223.165 33.8755 223.181 33.8352 223.215 33.8019C223.248 33.7687 223.288 33.7521 223.336 33.7521H224.642C224.689 33.7521 224.73 33.7687 224.763 33.8019C224.796 33.8352 224.813 33.8755 224.813 33.923V40.9417C224.813 41.8036 224.566 42.4969 224.074 43.024C223.583 43.5512 222.932 43.8123 222.127 43.8123C221.31 43.8123 220.66 43.5512 220.171 43.024Z" fill="white"/>
<path d="M231.316 43.65C231.283 43.6167 231.267 43.5764 231.267 43.5289V33.9245C231.267 33.877 231.283 33.8366 231.316 33.8034C231.35 33.7702 231.39 33.7535 231.438 33.7535H232.746C232.793 33.7535 232.834 33.7702 232.867 33.8034C232.9 33.8366 232.917 33.877 232.917 33.9245V43.5289C232.917 43.5764 232.9 43.6167 232.867 43.65C232.834 43.6832 232.793 43.6998 232.746 43.6998H231.438C231.39 43.6998 231.35 43.6832 231.316 43.65Z" fill="white"/>
<path d="M239.469 43.65C239.436 43.6167 239.419 43.5764 239.419 43.5289V33.9245C239.419 33.877 239.436 33.8366 239.469 33.8034C239.502 33.7702 239.542 33.7535 239.59 33.7535H242.019C242.833 33.7535 243.484 34.0005 243.973 34.492C244.46 34.9858 244.704 35.6435 244.704 36.4675V40.9859C244.704 41.8098 244.46 42.4675 243.973 42.9614C243.486 43.4553 242.833 43.6998 242.019 43.6998H239.59C239.542 43.6998 239.502 43.6832 239.469 43.65ZM241.138 42.2776L241.99 42.2633C242.304 42.2633 242.556 42.1375 242.75 41.8858C242.945 41.6341 243.047 41.3017 243.057 40.8838V36.5672C243.057 36.1422 242.959 35.8026 242.764 35.5509C242.57 35.2993 242.306 35.1734 241.976 35.1734H241.138C241.091 35.1734 241.067 35.1972 241.067 35.2446V42.2063C241.067 42.2538 241.091 42.2776 241.138 42.2776Z" fill="white"/>
<path d="M255.951 35.1246C255.918 35.1578 255.878 35.1745 255.83 35.1745H252.762C252.715 35.1745 252.691 35.1982 252.691 35.2457V37.9311C252.691 37.9786 252.715 38.0024 252.762 38.0024H254.581C254.629 38.0024 254.669 38.019 254.702 38.0522C254.736 38.0855 254.752 38.1258 254.752 38.1733V39.2679C254.752 39.3154 254.736 39.3558 254.702 39.389C254.669 39.4223 254.629 39.4389 254.581 39.4389H252.762C252.715 39.4389 252.691 39.4626 252.691 39.5101V42.2098C252.691 42.2573 252.715 42.281 252.762 42.281H255.83C255.878 42.281 255.918 42.2976 255.951 42.3309C255.984 42.3641 256.001 42.4045 256.001 42.452V43.5323C256.001 43.5798 255.984 43.6202 255.951 43.6534C255.918 43.6867 255.878 43.7033 255.83 43.7033H251.212C251.164 43.7033 251.124 43.6867 251.091 43.6534C251.058 43.6202 251.041 43.5798 251.041 43.5323V33.9279C251.041 33.8804 251.058 33.8401 251.091 33.8068C251.124 33.7736 251.164 33.757 251.212 33.757H255.83C255.878 33.757 255.918 33.7736 255.951 33.8068C255.984 33.8401 256.001 33.8804 256.001 33.9279V35.0083C256.001 35.051 255.984 35.0914 255.951 35.1246Z" fill="white"/>
<path d="M49.3415 43.7004H48.2208C48.0902 43.7004 47.9834 43.5936 47.9834 43.463V5.59388C47.9834 5.46329 48.0902 5.35645 48.2208 5.35645H49.3415C49.4721 5.35645 49.579 5.46329 49.579 5.59388V43.4606C49.579 43.5936 49.4745 43.7004 49.3415 43.7004Z" fill="white"/>
</svg>
