<?xml version="1.0" encoding="utf-8"?>
<!-- Generator: Adobe Illustrator 24.2.3, SVG Export Plug-In . SVG Version: 6.00 Build 0)  -->
<svg version="1.1" id="Capa_1" xmlns="http://www.w3.org/2000/svg" xmlns:xlink="http://www.w3.org/1999/xlink" x="0px" y="0px"
	 viewBox="0 0 1200 1200" style="enable-background:new 0 0 1200 1200;" xml:space="preserve">
<style type="text/css">
	.st0{fill:#447980;}
	.st1{fill:#0B2933;}
</style>
<g>
	<g>
		<path class="st0" d="M596.02,311.17c-2.64,2.64-5.84,3.95-9.59,3.95H343.6c-3.77,0-5.64,1.89-5.64,5.66v213.45
			c0,3.77,1.88,5.64,5.64,5.64h143.44c3.75,0,6.95,1.33,9.59,3.95c2.62,2.64,3.95,5.84,3.95,9.61v86.95c0,3.78-1.33,6.98-3.95,9.61
			c-2.64,2.64-5.84,3.95-9.59,3.95H343.6c-3.77,0-5.64,1.89-5.64,5.64v319.62c0,3.77-1.33,6.97-3.95,9.59
			c-2.64,2.64-5.84,3.95-9.61,3.95H220.51c-3.78,0-6.98-1.31-9.61-3.95c-2.64-2.62-3.95-5.83-3.95-9.59V215.75
			c0-3.77,1.31-6.97,3.95-9.61c2.62-2.62,5.83-3.95,9.61-3.95h365.92c3.75,0,6.95,1.33,9.59,3.95c2.62,2.64,3.95,5.84,3.95,9.61
			v85.83C599.98,305.34,598.65,308.54,596.02,311.17z"/>
	</g>
	<g>
		<path class="st1" d="M598.86,301.54v-85.83c0-3.77,1.33-6.97,3.95-9.61c2.64-2.62,5.84-3.95,9.59-3.95h367.05
			c3.78,0,6.98,1.33,9.61,3.95c2.64,2.64,3.95,5.84,3.95,9.61v763.47c0,3.77-1.31,6.97-3.95,9.59c-2.62,2.64-5.83,3.95-9.61,3.95
			H612.41c-3.75,0-6.95-1.31-9.59-3.95c-2.62-2.62-3.95-5.83-3.95-9.59v-85.84c0-3.75,1.33-6.95,3.95-9.59
			c2.64-2.62,5.84-3.95,9.59-3.95h243.95c3.77,0,5.64-1.88,5.64-5.66V659.56c0-3.75-1.88-5.64-5.64-5.64H711.8
			c-3.77,0-6.97-1.31-9.61-3.95c-2.62-2.62-3.95-5.83-3.95-9.61V553.4c0-3.77,1.33-6.97,3.95-9.61c2.64-2.62,5.84-3.95,9.61-3.95
			h144.56c3.77,0,5.64-1.88,5.64-5.64V320.74c0-3.77-1.88-5.66-5.64-5.66H612.41c-3.75,0-6.95-1.31-9.59-3.95
			C600.19,308.51,598.86,305.31,598.86,301.54z"/>
	</g>
</g>
</svg>
