<?xml version="1.0" encoding="utf-8"?>
<!-- Generator: Adobe Illustrator 24.2.3, SVG Export Plug-In . SVG Version: 6.00 Build 0)  -->
<svg version="1.1" id="Capa_1" xmlns="http://www.w3.org/2000/svg" xmlns:xlink="http://www.w3.org/1999/xlink" x="0px" y="0px"
	 viewBox="0 0 1200 1200" style="enable-background:new 0 0 1200 1200;" xml:space="preserve">
<style type="text/css">
	.st0{enable-background:new    ;}
	.st1{fill:#447980;}
	.st2{fill:#0B2933;}
</style>
<g>
	<g class="st0">
		<path class="st1" d="M147.71,516.19c-0.55,0.55-1.21,0.82-1.98,0.82H95.59c-0.78,0-1.17,0.39-1.17,1.17v44.07
			c0,0.78,0.39,1.17,1.17,1.17h29.61c0.78,0,1.44,0.27,1.98,0.82c0.54,0.55,0.82,1.21,0.82,1.98v17.96c0,0.78-0.27,1.44-0.82,1.98
			c-0.55,0.55-1.21,0.82-1.98,0.82H95.59c-0.78,0-1.17,0.39-1.17,1.17v65.99c0,0.78-0.27,1.44-0.82,1.98
			c-0.55,0.55-1.21,0.82-1.98,0.82H70.18c-0.78,0-1.44-0.27-1.98-0.82c-0.55-0.54-0.82-1.2-0.82-1.98V496.48
			c0-0.78,0.27-1.44,0.82-1.98c0.54-0.54,1.2-0.82,1.98-0.82h75.55c0.78,0,1.44,0.27,1.98,0.82c0.54,0.55,0.82,1.21,0.82,1.98v17.72
			C148.53,514.98,148.25,515.64,147.71,516.19z"/>
	</g>
	<g class="st0">
		<path class="st2" d="M148.3,514.2v-17.72c0-0.78,0.27-1.44,0.82-1.98c0.55-0.54,1.21-0.82,1.98-0.82h75.79
			c0.78,0,1.44,0.27,1.98,0.82c0.55,0.55,0.82,1.21,0.82,1.98v157.63c0,0.78-0.27,1.44-0.82,1.98c-0.54,0.55-1.2,0.82-1.98,0.82
			h-75.79c-0.78,0-1.44-0.27-1.98-0.82c-0.54-0.54-0.82-1.2-0.82-1.98v-17.72c0-0.78,0.27-1.44,0.82-1.98
			c0.55-0.54,1.21-0.82,1.98-0.82h50.37c0.78,0,1.17-0.39,1.17-1.17v-44.31c0-0.78-0.39-1.17-1.17-1.17h-29.85
			c-0.78,0-1.44-0.27-1.98-0.82c-0.54-0.54-0.82-1.2-0.82-1.98V566.2c0-0.78,0.27-1.44,0.82-1.98c0.55-0.54,1.21-0.82,1.98-0.82
			h29.85c0.78,0,1.17-0.39,1.17-1.17v-44.07c0-0.78-0.39-1.17-1.17-1.17h-50.37c-0.78,0-1.44-0.27-1.98-0.82
			C148.57,515.64,148.3,514.98,148.3,514.2z"/>
	</g>
	<g class="st0">
		<path class="st2" d="M356.97,505.05c-0.28,0.28-0.62,0.42-1.01,0.42H330.3c-0.4,0-0.6,0.2-0.6,0.6v22.55c0,0.4,0.2,0.6,0.6,0.6
			h15.15c0.4,0,0.73,0.14,1.01,0.42c0.28,0.28,0.42,0.62,0.42,1.01v9.19c0,0.4-0.14,0.74-0.42,1.01c-0.28,0.28-0.62,0.42-1.01,0.42
			H330.3c-0.4,0-0.6,0.2-0.6,0.6v33.77c0,0.4-0.14,0.74-0.42,1.01c-0.28,0.28-0.62,0.42-1.01,0.42H317.3c-0.4,0-0.74-0.14-1.01-0.42
			c-0.28-0.28-0.42-0.62-0.42-1.01v-80.66c0-0.4,0.14-0.74,0.42-1.01c0.28-0.28,0.62-0.42,1.01-0.42h38.66
			c0.4,0,0.73,0.14,1.01,0.42c0.28,0.28,0.42,0.62,0.42,1.01v9.07C357.39,504.43,357.25,504.77,356.97,505.05z"/>
		<path class="st2" d="M369.86,571.39c-4.1-4.42-6.15-10.24-6.15-17.48v-58.94c0-0.4,0.14-0.74,0.42-1.01
			c0.28-0.28,0.62-0.42,1.01-0.42h10.98c0.4,0,0.73,0.14,1.01,0.42c0.28,0.28,0.42,0.62,0.42,1.01v60.38c0,3.18,0.79,5.77,2.39,7.76
			c1.59,1.99,3.7,2.98,6.32,2.98s4.73-0.99,6.32-2.98c1.59-1.99,2.39-4.57,2.39-7.76v-60.38c0-0.4,0.14-0.74,0.42-1.01
			c0.28-0.28,0.62-0.42,1.01-0.42h10.98c0.4,0,0.73,0.14,1.01,0.42c0.28,0.28,0.42,0.62,0.42,1.01v58.94
			c0,7.24-2.07,13.07-6.2,17.48c-4.14,4.42-9.59,6.62-16.35,6.62C379.42,578.01,373.95,575.8,369.86,571.39z M379.58,485.42
			c-0.24-0.32-0.2-0.72,0.12-1.19l7.04-12.29c0.32-0.64,0.91-0.95,1.79-0.95h8.59c0.64,0,1.03,0.18,1.19,0.54
			c0.16,0.36,0.08,0.78-0.24,1.25l-8.83,12.29c-0.4,0.56-0.95,0.84-1.67,0.84h-6.8C380.22,485.9,379.82,485.74,379.58,485.42z"/>
		<path class="st2" d="M463.88,493.95c0.28,0.28,0.42,0.62,0.42,1.01v9.07c0,0.4-0.14,0.74-0.42,1.01
			c-0.28,0.28-0.62,0.42-1.01,0.42h-15.15c-0.4,0-0.6,0.2-0.6,0.6v69.56c0,0.4-0.14,0.74-0.42,1.01c-0.28,0.28-0.62,0.42-1.01,0.42
			h-10.98c-0.4,0-0.74-0.14-1.01-0.42c-0.28-0.28-0.42-0.62-0.42-1.01v-69.56c0-0.4-0.2-0.6-0.6-0.6h-14.32
			c-0.4,0-0.74-0.14-1.01-0.42c-0.28-0.28-0.42-0.62-0.42-1.01v-9.07c0-0.4,0.14-0.74,0.42-1.01c0.28-0.28,0.62-0.42,1.01-0.42
			h44.51C463.26,493.53,463.6,493.67,463.88,493.95z"/>
		<path class="st2" d="M511.85,571.09c-4.26,3.98-9.8,5.97-16.65,5.97h-21c-0.4,0-0.74-0.14-1.01-0.42
			c-0.28-0.28-0.42-0.62-0.42-1.01v-80.66c0-0.4,0.14-0.74,0.42-1.01c0.28-0.28,0.62-0.42,1.01-0.42h18.85
			c7.56,0,13.48,1.91,17.78,5.73s6.44,9.39,6.44,16.71c0,8.19-2.9,14.04-8.71,17.54c-0.4,0.24-0.48,0.48-0.24,0.72
			c3.1,1.99,5.53,4.65,7.28,7.99c1.75,3.34,2.62,7.32,2.62,11.93C518.23,561.47,516.1,567.11,511.85,571.09z M486.61,506.06v22.19
			c0,0.4,0.2,0.6,0.6,0.6h6.09c3.26,0,5.81-0.99,7.64-2.98c1.83-1.99,2.74-4.81,2.74-8.47c0-3.82-0.92-6.76-2.74-8.83
			c-1.83-2.07-4.38-3.1-7.64-3.1h-6.09C486.81,505.46,486.61,505.66,486.61,506.06z M501.65,561.66c1.83-2.23,2.74-5.37,2.74-9.43
			c0-4.14-0.92-7.38-2.74-9.72c-1.83-2.35-4.34-3.52-7.52-3.52h-6.92c-0.4,0-0.6,0.2-0.6,0.6v24.82c0,0.4,0.2,0.6,0.6,0.6h6.92
			C497.31,565,499.81,563.89,501.65,561.66z"/>
		<path class="st2" d="M531.53,571.81c-4.18-4.14-6.26-9.62-6.26-16.47v-40.09c0-6.84,2.09-12.33,6.26-16.47
			c4.18-4.14,9.68-6.21,16.53-6.21c6.84,0,12.37,2.07,16.59,6.21c4.22,4.14,6.32,9.62,6.32,16.47v40.09
			c0,6.84-2.11,12.33-6.32,16.47c-4.22,4.14-9.75,6.2-16.59,6.2C541.22,578.01,535.71,575.94,531.53,571.81z M554.62,563.27
			c1.67-1.87,2.51-4.31,2.51-7.34v-41.28c0-3.02-0.84-5.47-2.51-7.34c-1.67-1.87-3.86-2.8-6.56-2.8c-2.71,0-4.87,0.94-6.5,2.8
			c-1.63,1.87-2.45,4.32-2.45,7.34v41.28c0,3.02,0.81,5.47,2.45,7.34c1.63,1.87,3.8,2.8,6.5,2.8
			C550.76,566.08,552.95,565.14,554.62,563.27z"/>
		<path class="st2" d="M581.65,576.64c-0.28-0.28-0.42-0.62-0.42-1.01v-80.66c0-0.4,0.14-0.74,0.42-1.01
			c0.28-0.28,0.62-0.42,1.01-0.42h10.98c0.4,0,0.73,0.14,1.01,0.42c0.28,0.28,0.42,0.62,0.42,1.01v69.56c0,0.4,0.2,0.6,0.6,0.6
			h25.77c0.4,0,0.73,0.14,1.01,0.42c0.28,0.28,0.42,0.62,0.42,1.01v9.07c0,0.4-0.14,0.74-0.42,1.01c-0.28,0.28-0.62,0.42-1.01,0.42
			h-38.78C582.26,577.06,581.93,576.92,581.65,576.64z"/>
		<path class="st2" d="M693.45,505.05c-0.28,0.28-0.62,0.42-1.01,0.42h-25.77c-0.4,0-0.6,0.2-0.6,0.6v22.55c0,0.4,0.2,0.6,0.6,0.6
			h15.27c0.4,0,0.73,0.14,1.01,0.42c0.28,0.28,0.42,0.62,0.42,1.01v9.19c0,0.4-0.14,0.74-0.42,1.01c-0.28,0.28-0.62,0.42-1.01,0.42
			h-15.27c-0.4,0-0.6,0.2-0.6,0.6v22.67c0,0.4,0.2,0.6,0.6,0.6h25.77c0.4,0,0.73,0.14,1.01,0.42c0.28,0.28,0.42,0.62,0.42,1.01v9.07
			c0,0.4-0.14,0.74-0.42,1.01c-0.28,0.28-0.62,0.42-1.01,0.42h-38.78c-0.4,0-0.74-0.14-1.01-0.42c-0.28-0.28-0.42-0.62-0.42-1.01
			v-80.66c0-0.4,0.14-0.74,0.42-1.01c0.28-0.28,0.62-0.42,1.01-0.42h38.78c0.4,0,0.73,0.14,1.01,0.42c0.28,0.28,0.42,0.62,0.42,1.01
			v9.07C693.87,504.43,693.73,504.77,693.45,505.05z"/>
		<path class="st2" d="M700.19,576.58c-0.16-0.32-0.16-0.72,0-1.19l16.35-39.73c0.08-0.24,0.08-0.48,0-0.72l-16.35-39.73
			c-0.08-0.16-0.12-0.4-0.12-0.72c0-0.64,0.4-0.96,1.19-0.96h11.33c0.79,0,1.31,0.4,1.55,1.19l9.55,25.89
			c0.08,0.24,0.2,0.36,0.36,0.36c0.16,0,0.28-0.12,0.36-0.36l9.43-25.89c0.24-0.79,0.75-1.19,1.55-1.19h11.22
			c0.56,0,0.91,0.16,1.07,0.48c0.16,0.32,0.16,0.72,0,1.19l-16.35,39.73c-0.08,0.24-0.08,0.48,0,0.72l16.35,39.73
			c0.08,0.16,0.12,0.4,0.12,0.72c0,0.64-0.4,0.95-1.19,0.95h-11.1c-0.88,0-1.43-0.4-1.67-1.19l-9.43-25.77
			c-0.08-0.24-0.2-0.36-0.36-0.36c-0.16,0-0.28,0.12-0.36,0.36l-9.55,25.77c-0.24,0.8-0.8,1.19-1.67,1.19h-11.21
			C700.71,577.06,700.35,576.9,700.19,576.58z"/>
		<path class="st2" d="M791.53,496.51c3.22,2.07,5.73,4.97,7.52,8.71c1.79,3.74,2.68,8,2.68,12.77c0,7.16-1.89,12.93-5.67,17.3
			c-3.78,4.38-8.77,6.56-14.97,6.56h-10.14c-0.4,0-0.6,0.2-0.6,0.6v33.17c0,0.4-0.14,0.74-0.42,1.01c-0.28,0.28-0.62,0.42-1.01,0.42
			h-10.98c-0.4,0-0.74-0.14-1.01-0.42c-0.28-0.28-0.42-0.62-0.42-1.01v-80.78c0-0.4,0.14-0.73,0.42-1.01
			c0.28-0.28,0.62-0.42,1.01-0.42h22.43C784.59,493.41,788.31,494.45,791.53,496.51z M785.21,527.6c1.79-2.27,2.69-5.35,2.69-9.25
			c0-3.98-0.9-7.14-2.69-9.49c-1.79-2.35-4.16-3.52-7.1-3.52h-7.16c-0.4,0-0.6,0.2-0.6,0.6v24.46c0,0.4,0.2,0.6,0.6,0.6h7.16
			C781.05,531,783.42,529.86,785.21,527.6z"/>
		<path class="st2" d="M851.19,505.05c-0.28,0.28-0.62,0.42-1.01,0.42H824.4c-0.4,0-0.6,0.2-0.6,0.6v22.55c0,0.4,0.2,0.6,0.6,0.6
			h15.27c0.4,0,0.73,0.14,1.01,0.42c0.28,0.28,0.42,0.62,0.42,1.01v9.19c0,0.4-0.14,0.74-0.42,1.01c-0.28,0.28-0.62,0.42-1.01,0.42
			H824.4c-0.4,0-0.6,0.2-0.6,0.6v22.67c0,0.4,0.2,0.6,0.6,0.6h25.77c0.4,0,0.73,0.14,1.01,0.42c0.28,0.28,0.42,0.62,0.42,1.01v9.07
			c0,0.4-0.14,0.74-0.42,1.01c-0.28,0.28-0.62,0.42-1.01,0.42h-38.78c-0.4,0-0.74-0.14-1.01-0.42c-0.28-0.28-0.42-0.62-0.42-1.01
			v-80.66c0-0.4,0.14-0.74,0.42-1.01c0.28-0.28,0.62-0.42,1.01-0.42h38.78c0.4,0,0.73,0.14,1.01,0.42c0.28,0.28,0.42,0.62,0.42,1.01
			v9.07C851.61,504.43,851.47,504.77,851.19,505.05z"/>
		<path class="st2" d="M892.17,575.86l-10.14-34.25c-0.16-0.32-0.36-0.48-0.6-0.48h-6.32c-0.4,0-0.6,0.2-0.6,0.6v33.89
			c0,0.4-0.14,0.74-0.42,1.01c-0.28,0.28-0.62,0.42-1.01,0.42h-10.98c-0.4,0-0.74-0.14-1.01-0.42c-0.28-0.28-0.42-0.62-0.42-1.01
			v-80.66c0-0.4,0.14-0.74,0.42-1.01c0.28-0.28,0.62-0.42,1.01-0.42h22.43c4.21,0,7.94,1.01,11.16,3.04
			c3.22,2.03,5.73,4.89,7.52,8.59c1.79,3.7,2.68,7.94,2.68,12.71c0,4.93-0.95,9.19-2.86,12.77c-1.91,3.58-4.57,6.28-7.99,8.11
			c-0.32,0.08-0.44,0.32-0.36,0.72l11.69,35.92c0.08,0.16,0.12,0.36,0.12,0.6c0,0.72-0.44,1.07-1.31,1.07h-11.46
			C892.93,577.06,892.41,576.66,892.17,575.86z M874.51,506.06v23.74c0,0.4,0.2,0.6,0.6,0.6h7.28c2.86,0,5.19-1.11,6.98-3.34
			c1.79-2.23,2.69-5.25,2.69-9.07s-0.89-6.86-2.69-9.13c-1.79-2.27-4.12-3.4-6.98-3.4h-7.28
			C874.71,505.46,874.51,505.66,874.51,506.06z"/>
		<path class="st2" d="M914.9,576.64c-0.28-0.28-0.42-0.62-0.42-1.01v-80.66c0-0.4,0.14-0.74,0.42-1.01
			c0.28-0.28,0.62-0.42,1.01-0.42h10.98c0.4,0,0.73,0.14,1.01,0.42c0.28,0.28,0.42,0.62,0.42,1.01v80.66c0,0.4-0.14,0.74-0.42,1.01
			c-0.28,0.28-0.62,0.42-1.01,0.42h-10.98C915.52,577.06,915.18,576.92,914.9,576.64z"/>
		<path class="st2" d="M981.25,505.05c-0.28,0.28-0.62,0.42-1.01,0.42h-25.77c-0.4,0-0.6,0.2-0.6,0.6v22.55c0,0.4,0.2,0.6,0.6,0.6
			h15.27c0.4,0,0.74,0.14,1.01,0.42c0.28,0.28,0.42,0.62,0.42,1.01v9.19c0,0.4-0.14,0.74-0.42,1.01c-0.28,0.28-0.62,0.42-1.01,0.42
			h-15.27c-0.4,0-0.6,0.2-0.6,0.6v22.67c0,0.4,0.2,0.6,0.6,0.6h25.77c0.4,0,0.73,0.14,1.01,0.42c0.28,0.28,0.42,0.62,0.42,1.01v9.07
			c0,0.4-0.14,0.74-0.42,1.01c-0.28,0.28-0.62,0.42-1.01,0.42h-38.78c-0.4,0-0.74-0.14-1.01-0.42c-0.28-0.28-0.42-0.62-0.42-1.01
			v-80.66c0-0.4,0.14-0.74,0.42-1.01c0.28-0.28,0.62-0.42,1.01-0.42h38.78c0.4,0,0.73,0.14,1.01,0.42c0.28,0.28,0.42,0.62,0.42,1.01
			v9.07C981.66,504.43,981.52,504.77,981.25,505.05z"/>
		<path class="st2" d="M1025.04,493.95c0.28-0.28,0.62-0.42,1.02-0.42h10.86c0.4,0,0.73,0.14,1.01,0.42
			c0.28,0.28,0.42,0.62,0.42,1.01v80.66c0,0.4-0.14,0.74-0.42,1.01c-0.28,0.28-0.62,0.42-1.01,0.42h-12.53
			c-0.79,0-1.31-0.4-1.55-1.19l-17.78-50.59c-0.08-0.24-0.22-0.34-0.42-0.3c-0.2,0.04-0.3,0.18-0.3,0.42l0.12,50.23
			c0,0.4-0.14,0.74-0.42,1.01c-0.28,0.28-0.62,0.42-1.01,0.42h-10.86c-0.4,0-0.74-0.14-1.01-0.42c-0.28-0.28-0.42-0.62-0.42-1.01
			v-80.66c0-0.4,0.14-0.74,0.42-1.01c0.28-0.28,0.62-0.42,1.01-0.42h12.29c0.79,0,1.31,0.4,1.55,1.19l17.9,50.23
			c0.08,0.24,0.22,0.34,0.42,0.3c0.2-0.04,0.3-0.18,0.3-0.42v-49.88C1024.62,494.57,1024.76,494.23,1025.04,493.95z"/>
		<path class="st2" d="M1054.75,571.86c-4.1-4.1-6.15-9.53-6.15-16.29v-40.69c0-6.84,2.05-12.27,6.15-16.29
			c4.1-4.02,9.53-6.03,16.29-6.03c6.84,0,12.33,2.01,16.47,6.03c4.14,4.02,6.21,9.45,6.21,16.29v1.43c0,0.4-0.14,0.76-0.42,1.07
			c-0.28,0.32-0.62,0.48-1.01,0.48l-11.1,0.48c-0.95,0-1.43-0.48-1.43-1.43v-2.98c0-2.78-0.79-5.05-2.39-6.8
			c-1.59-1.75-3.7-2.62-6.32-2.62c-2.55,0-4.61,0.88-6.2,2.62c-1.59,1.75-2.39,4.02-2.39,6.8v42.72c0,2.79,0.79,5.05,2.39,6.8
			c1.59,1.75,3.66,2.62,6.2,2.62c2.63,0,4.73-0.87,6.32-2.62c1.59-1.75,2.39-4.02,2.39-6.8v-2.98c0-0.4,0.14-0.73,0.42-1.01
			c0.28-0.28,0.62-0.42,1.01-0.42l11.1,0.48c0.4,0,0.73,0.14,1.01,0.42c0.28,0.28,0.42,0.62,0.42,1.01v1.43
			c0,6.76-2.07,12.19-6.21,16.29c-4.14,4.1-9.62,6.14-16.47,6.14C1064.27,578.01,1058.84,575.96,1054.75,571.86z"/>
		<path class="st2" d="M1144.59,505.05c-0.28,0.28-0.62,0.42-1.01,0.42h-25.77c-0.4,0-0.6,0.2-0.6,0.6v22.55c0,0.4,0.2,0.6,0.6,0.6
			h15.27c0.4,0,0.74,0.14,1.01,0.42c0.28,0.28,0.42,0.62,0.42,1.01v9.19c0,0.4-0.14,0.74-0.42,1.01c-0.28,0.28-0.62,0.42-1.01,0.42
			h-15.27c-0.4,0-0.6,0.2-0.6,0.6v22.67c0,0.4,0.2,0.6,0.6,0.6h25.77c0.4,0,0.73,0.14,1.01,0.42c0.28,0.28,0.42,0.62,0.42,1.01v9.07
			c0,0.4-0.14,0.74-0.42,1.01c-0.28,0.28-0.62,0.42-1.01,0.42h-38.78c-0.4,0-0.74-0.14-1.01-0.42c-0.28-0.28-0.42-0.62-0.42-1.01
			v-80.66c0-0.4,0.14-0.74,0.42-1.01c0.28-0.28,0.62-0.42,1.01-0.42h38.78c0.4,0,0.73,0.14,1.01,0.42c0.28,0.28,0.42,0.62,0.42,1.01
			v9.07C1145.01,504.43,1144.87,504.77,1144.59,505.05z"/>
	</g>
	<g class="st0">
		<path class="st2" d="M339.06,613.36c0.14,0.14,0.21,0.31,0.21,0.51v4.55c0,0.2-0.07,0.37-0.21,0.51
			c-0.14,0.14-0.31,0.21-0.51,0.21h-7.6c-0.2,0-0.3,0.1-0.3,0.3v34.89c0,0.2-0.07,0.37-0.21,0.51c-0.14,0.14-0.31,0.21-0.51,0.21
			h-5.51c-0.2,0-0.37-0.07-0.51-0.21c-0.14-0.14-0.21-0.31-0.21-0.51v-34.89c0-0.2-0.1-0.3-0.3-0.3h-7.18
			c-0.2,0-0.37-0.07-0.51-0.21c-0.14-0.14-0.21-0.31-0.21-0.51v-4.55c0-0.2,0.07-0.37,0.21-0.51c0.14-0.14,0.31-0.21,0.51-0.21
			h22.32C338.75,613.15,338.92,613.22,339.06,613.36z"/>
		<path class="st2" d="M380.41,613.36c0.14-0.14,0.31-0.21,0.51-0.21h5.51c0.2,0,0.37,0.07,0.51,0.21c0.14,0.14,0.21,0.31,0.21,0.51
			v40.45c0,0.2-0.07,0.37-0.21,0.51c-0.14,0.14-0.31,0.21-0.51,0.21h-5.51c-0.2,0-0.37-0.07-0.51-0.21
			c-0.14-0.14-0.21-0.31-0.21-0.51v-16.93c0-0.2-0.1-0.3-0.3-0.3h-7.6c-0.2,0-0.3,0.1-0.3,0.3v16.93c0,0.2-0.07,0.37-0.21,0.51
			c-0.14,0.14-0.31,0.21-0.51,0.21h-5.51c-0.2,0-0.37-0.07-0.51-0.21c-0.14-0.14-0.21-0.31-0.21-0.51v-40.45
			c0-0.2,0.07-0.37,0.21-0.51c0.14-0.14,0.31-0.21,0.51-0.21h5.51c0.2,0,0.37,0.07,0.51,0.21c0.14,0.14,0.21,0.31,0.21,0.51v16.88
			c0,0.2,0.1,0.3,0.3,0.3h7.6c0.2,0,0.3-0.1,0.3-0.3v-16.88C380.2,613.67,380.27,613.5,380.41,613.36z"/>
		<path class="st2" d="M434.98,618.92c-0.14,0.14-0.31,0.21-0.51,0.21h-12.92c-0.2,0-0.3,0.1-0.3,0.3v11.31c0,0.2,0.1,0.3,0.3,0.3
			h7.66c0.2,0,0.37,0.07,0.51,0.21c0.14,0.14,0.21,0.31,0.21,0.51v4.61c0,0.2-0.07,0.37-0.21,0.51c-0.14,0.14-0.31,0.21-0.51,0.21
			h-7.66c-0.2,0-0.3,0.1-0.3,0.3v11.37c0,0.2,0.1,0.3,0.3,0.3h12.92c0.2,0,0.37,0.07,0.51,0.21c0.14,0.14,0.21,0.31,0.21,0.51v4.55
			c0,0.2-0.07,0.37-0.21,0.51c-0.14,0.14-0.31,0.21-0.51,0.21h-19.45c-0.2,0-0.37-0.07-0.51-0.21c-0.14-0.14-0.21-0.31-0.21-0.51
			v-40.45c0-0.2,0.07-0.37,0.21-0.51c0.14-0.14,0.31-0.21,0.51-0.21h19.45c0.2,0,0.37,0.07,0.51,0.21c0.14,0.14,0.21,0.31,0.21,0.51
			v4.55C435.19,618.61,435.12,618.78,434.98,618.92z"/>
		<path class="st2" d="M513.79,652.04c-2.13,2-4.92,2.99-8.35,2.99h-10.53c-0.2,0-0.37-0.07-0.51-0.21
			c-0.14-0.14-0.21-0.31-0.21-0.51v-40.45c0-0.2,0.07-0.37,0.21-0.51c0.14-0.14,0.31-0.21,0.51-0.21h9.46
			c3.79,0,6.76,0.96,8.92,2.87s3.23,4.71,3.23,8.38c0,4.11-1.46,7.04-4.37,8.8c-0.2,0.12-0.24,0.24-0.12,0.36
			c1.56,1,2.77,2.33,3.65,4.01c0.88,1.68,1.32,3.67,1.32,5.98C516.99,647.22,515.93,650.05,513.79,652.04z M501.14,619.43v11.13
			c0,0.2,0.1,0.3,0.3,0.3h3.05c1.63,0,2.91-0.5,3.83-1.5s1.38-2.41,1.38-4.25c0-1.92-0.46-3.39-1.38-4.43s-2.19-1.56-3.83-1.56
			h-3.05C501.24,619.13,501.14,619.23,501.14,619.43z M508.68,647.32c0.92-1.12,1.38-2.69,1.38-4.73c0-2.07-0.46-3.7-1.38-4.88
			c-0.92-1.18-2.17-1.77-3.77-1.77h-3.47c-0.2,0-0.3,0.1-0.3,0.3v12.45c0,0.2,0.1,0.3,0.3,0.3h3.47
			C506.5,648.99,507.76,648.43,508.68,647.32z"/>
		<path class="st2" d="M563.22,618.92c-0.14,0.14-0.31,0.21-0.51,0.21h-12.92c-0.2,0-0.3,0.1-0.3,0.3v11.31c0,0.2,0.1,0.3,0.3,0.3
			h7.66c0.2,0,0.37,0.07,0.51,0.21c0.14,0.14,0.21,0.31,0.21,0.51v4.61c0,0.2-0.07,0.37-0.21,0.51c-0.14,0.14-0.31,0.21-0.51,0.21
			h-7.66c-0.2,0-0.3,0.1-0.3,0.3v11.37c0,0.2,0.1,0.3,0.3,0.3h12.92c0.2,0,0.37,0.07,0.51,0.21c0.14,0.14,0.21,0.31,0.21,0.51v4.55
			c0,0.2-0.07,0.37-0.21,0.51c-0.14,0.14-0.31,0.21-0.51,0.21h-19.45c-0.2,0-0.37-0.07-0.51-0.21c-0.14-0.14-0.21-0.31-0.21-0.51
			v-40.45c0-0.2,0.07-0.37,0.21-0.51c0.14-0.14,0.31-0.21,0.51-0.21h19.45c0.2,0,0.37,0.07,0.51,0.21c0.14,0.14,0.21,0.31,0.21,0.51
			v4.55C563.43,618.61,563.36,618.78,563.22,618.92z"/>
		<path class="st2" d="M591.38,652.52c-2.04-1.99-3.05-4.61-3.05-7.84v-1.56c0-0.2,0.07-0.37,0.21-0.51
			c0.14-0.14,0.31-0.21,0.51-0.21h5.45c0.2,0,0.37,0.07,0.51,0.21c0.14,0.14,0.21,0.31,0.21,0.51v1.2c0,1.56,0.39,2.81,1.17,3.77
			c0.78,0.96,1.79,1.44,3.02,1.44c1.24,0,2.25-0.45,3.05-1.35c0.8-0.9,1.2-2.08,1.2-3.56c0-1.04-0.22-1.93-0.66-2.69
			c-0.44-0.76-1.06-1.48-1.85-2.15c-0.8-0.68-2.07-1.66-3.83-2.93c-2-1.44-3.6-2.71-4.82-3.83s-2.23-2.46-3.05-4.04
			c-0.82-1.58-1.23-3.4-1.23-5.47c0-3.31,1-5.94,2.99-7.9c1.99-1.95,4.63-2.93,7.9-2.93c3.31,0,5.98,1.03,8.02,3.08
			c2.03,2.06,3.05,4.78,3.05,8.17v1.44c0,0.2-0.07,0.37-0.21,0.51c-0.14,0.14-0.31,0.21-0.51,0.21h-5.39c-0.2,0-0.37-0.07-0.51-0.21
			c-0.14-0.14-0.21-0.31-0.21-0.51v-1.56c0-1.56-0.39-2.8-1.17-3.74c-0.78-0.94-1.81-1.41-3.08-1.41c-1.2,0-2.17,0.43-2.93,1.29
			c-0.76,0.86-1.14,2.04-1.14,3.56c0,1.44,0.41,2.65,1.23,3.65c0.82,1,2.42,2.37,4.82,4.13c2.43,1.79,4.27,3.26,5.5,4.4
			c1.24,1.14,2.19,2.38,2.87,3.74c0.68,1.36,1.02,2.97,1.02,4.85c0,3.39-1.02,6.11-3.05,8.17c-2.04,2.06-4.71,3.08-8.02,3.08
			C596.08,655.51,593.41,654.52,591.38,652.52z"/>
		<path class="st2" d="M657.89,613.36c0.14,0.14,0.21,0.31,0.21,0.51v4.55c0,0.2-0.07,0.37-0.21,0.51s-0.31,0.21-0.51,0.21h-7.6
			c-0.2,0-0.3,0.1-0.3,0.3v34.89c0,0.2-0.07,0.37-0.21,0.51c-0.14,0.14-0.31,0.21-0.51,0.21h-5.51c-0.2,0-0.37-0.07-0.51-0.21
			c-0.14-0.14-0.21-0.31-0.21-0.51v-34.89c0-0.2-0.1-0.3-0.3-0.3h-7.18c-0.2,0-0.37-0.07-0.51-0.21s-0.21-0.31-0.21-0.51v-4.55
			c0-0.2,0.07-0.37,0.21-0.51c0.14-0.14,0.31-0.21,0.51-0.21h22.32C657.58,613.15,657.75,613.22,657.89,613.36z"/>
		<path class="st2" d="M738.79,613.36c0.14,0.14,0.21,0.31,0.21,0.51v4.55c0,0.2-0.07,0.37-0.21,0.51s-0.31,0.21-0.51,0.21h-7.6
			c-0.2,0-0.3,0.1-0.3,0.3v34.89c0,0.2-0.07,0.37-0.21,0.51c-0.14,0.14-0.31,0.21-0.51,0.21h-5.51c-0.2,0-0.37-0.07-0.51-0.21
			c-0.14-0.14-0.21-0.31-0.21-0.51v-34.89c0-0.2-0.1-0.3-0.3-0.3h-7.18c-0.2,0-0.37-0.07-0.51-0.21s-0.21-0.31-0.21-0.51v-4.55
			c0-0.2,0.07-0.37,0.21-0.51c0.14-0.14,0.31-0.21,0.51-0.21h22.32C738.49,613.15,738.65,613.22,738.79,613.36z"/>
		<path class="st2" d="M765.78,652.4c-2.09-2.07-3.14-4.83-3.14-8.26v-20.11c0-3.43,1.05-6.18,3.14-8.26
			c2.09-2.07,4.86-3.11,8.29-3.11c3.43,0,6.2,1.04,8.32,3.11c2.11,2.07,3.17,4.83,3.17,8.26v20.11c0,3.43-1.06,6.18-3.17,8.26
			c-2.12,2.07-4.89,3.11-8.32,3.11C770.64,655.51,767.88,654.48,765.78,652.4z M777.36,648.12c0.84-0.94,1.26-2.16,1.26-3.68v-20.71
			c0-1.52-0.42-2.74-1.26-3.68c-0.84-0.94-1.94-1.41-3.29-1.41c-1.36,0-2.44,0.47-3.26,1.41c-0.82,0.94-1.23,2.17-1.23,3.68v20.71
			c0,1.52,0.41,2.74,1.23,3.68c0.82,0.94,1.9,1.41,3.26,1.41C775.43,649.53,776.52,649.06,777.36,648.12z"/>
		<path class="st2" d="M815.09,652.19c-2.06-2.21-3.08-5.14-3.08-8.77v-29.56c0-0.2,0.07-0.37,0.21-0.51
			c0.14-0.14,0.31-0.21,0.51-0.21h5.51c0.2,0,0.37,0.07,0.51,0.21c0.14,0.14,0.21,0.31,0.21,0.51v30.28c0,1.6,0.4,2.89,1.2,3.89
			c0.8,1,1.85,1.5,3.17,1.5s2.37-0.5,3.17-1.5c0.8-1,1.2-2.29,1.2-3.89v-30.28c0-0.2,0.07-0.37,0.21-0.51
			c0.14-0.14,0.31-0.21,0.51-0.21h5.5c0.2,0,0.37,0.07,0.51,0.21c0.14,0.14,0.21,0.31,0.21,0.51v29.56c0,3.63-1.04,6.55-3.11,8.77
			s-4.81,3.32-8.2,3.32C819.89,655.51,817.15,654.41,815.09,652.19z"/>
		<path class="st2" d="M877.6,654.44l-5.09-17.17c-0.08-0.16-0.18-0.24-0.3-0.24h-3.17c-0.2,0-0.3,0.1-0.3,0.3v16.99
			c0,0.2-0.07,0.37-0.21,0.51c-0.14,0.14-0.31,0.21-0.51,0.21h-5.51c-0.2,0-0.37-0.07-0.51-0.21c-0.14-0.14-0.21-0.31-0.21-0.51
			v-40.45c0-0.2,0.07-0.37,0.21-0.51c0.14-0.14,0.31-0.21,0.51-0.21h11.25c2.11,0,3.98,0.51,5.6,1.53c1.62,1.02,2.87,2.45,3.77,4.31
			c0.9,1.86,1.35,3.98,1.35,6.37c0,2.47-0.48,4.61-1.44,6.4c-0.96,1.79-2.29,3.15-4.01,4.07c-0.16,0.04-0.22,0.16-0.18,0.36
			l5.86,18.01c0.04,0.08,0.06,0.18,0.06,0.3c0,0.36-0.22,0.54-0.66,0.54h-5.74C877.97,655.04,877.72,654.84,877.6,654.44z
			 M868.74,619.43v11.91c0,0.2,0.1,0.3,0.3,0.3h3.65c1.44,0,2.6-0.56,3.5-1.67s1.35-2.63,1.35-4.55c0-1.91-0.45-3.44-1.35-4.58
			c-0.9-1.14-2.06-1.71-3.5-1.71h-3.65C868.84,619.13,868.74,619.23,868.74,619.43z"/>
		<path class="st2" d="M945.6,652.55c-2.05-1.97-3.08-4.6-3.08-7.87V623.5c0-3.27,1.03-5.89,3.08-7.87
			c2.05-1.98,4.78-2.96,8.17-2.96c3.39,0,6.13,0.99,8.23,2.96c2.09,1.97,3.14,4.62,3.14,7.93v2.33c0,0.2-0.07,0.37-0.21,0.51
			c-0.14,0.14-0.31,0.21-0.51,0.21h-5.5c-0.2,0-0.37-0.07-0.51-0.21c-0.14-0.14-0.21-0.31-0.21-0.51v-2.45
			c0-1.44-0.41-2.59-1.23-3.47c-0.82-0.88-1.88-1.32-3.2-1.32s-2.37,0.44-3.17,1.32c-0.8,0.88-1.2,2.04-1.2,3.47v21.3
			c0,1.44,0.4,2.59,1.2,3.47c0.8,0.88,1.86,1.32,3.17,1.32s2.38-0.44,3.2-1.32c0.82-0.88,1.23-2.03,1.23-3.47V639
			c0-0.2-0.1-0.3-0.3-0.3h-3.65c-0.2,0-0.37-0.07-0.51-0.21s-0.21-0.31-0.21-0.51v-4.37c0-0.2,0.07-0.37,0.21-0.51
			s0.31-0.21,0.51-0.21h10.17c0.2,0,0.37,0.07,0.51,0.21c0.14,0.14,0.21,0.31,0.21,0.51v11.07c0,3.27-1.05,5.89-3.14,7.87
			c-2.09,1.97-4.84,2.96-8.23,2.96C950.38,655.51,947.66,654.53,945.6,652.55z"/>
		<path class="st2" d="M994.67,652.19c-2.06-2.21-3.08-5.14-3.08-8.77v-29.56c0-0.2,0.07-0.37,0.21-0.51
			c0.14-0.14,0.31-0.21,0.51-0.21h5.51c0.2,0,0.37,0.07,0.51,0.21c0.14,0.14,0.21,0.31,0.21,0.51v30.28c0,1.6,0.4,2.89,1.2,3.89
			c0.8,1,1.85,1.5,3.17,1.5s2.37-0.5,3.17-1.5c0.8-1,1.2-2.29,1.2-3.89v-30.28c0-0.2,0.07-0.37,0.21-0.51
			c0.14-0.14,0.31-0.21,0.51-0.21h5.5c0.2,0,0.37,0.07,0.51,0.21c0.14,0.14,0.21,0.31,0.21,0.51v29.56c0,3.63-1.04,6.55-3.11,8.77
			s-4.81,3.32-8.2,3.32C999.47,655.51,996.73,654.41,994.67,652.19z"/>
		<path class="st2" d="M1041.59,654.83c-0.14-0.14-0.21-0.31-0.21-0.51v-40.45c0-0.2,0.07-0.37,0.21-0.51
			c0.14-0.14,0.31-0.21,0.51-0.21h5.51c0.2,0,0.37,0.07,0.51,0.21c0.14,0.14,0.21,0.31,0.21,0.51v40.45c0,0.2-0.07,0.37-0.21,0.51
			c-0.14,0.14-0.31,0.21-0.51,0.21h-5.51C1041.9,655.04,1041.73,654.97,1041.59,654.83z"/>
		<path class="st2" d="M1075.94,654.83c-0.14-0.14-0.21-0.31-0.21-0.51v-40.45c0-0.2,0.07-0.37,0.21-0.51
			c0.14-0.14,0.31-0.21,0.51-0.21h10.23c3.43,0,6.17,1.04,8.23,3.11c2.05,2.08,3.08,4.85,3.08,8.32v19.03
			c0,3.47-1.03,6.24-3.08,8.32c-2.05,2.08-4.8,3.11-8.23,3.11h-10.23C1076.25,655.04,1076.08,654.97,1075.94,654.83z
			 M1082.97,649.05l3.59-0.06c1.32,0,2.38-0.53,3.2-1.59c0.82-1.06,1.25-2.46,1.29-4.22V625c0-1.79-0.41-3.22-1.23-4.28
			c-0.82-1.06-1.93-1.59-3.32-1.59h-3.53c-0.2,0-0.3,0.1-0.3,0.3v29.32C1082.67,648.95,1082.77,649.05,1082.97,649.05z"/>
		<path class="st2" d="M1145.35,618.92c-0.14,0.14-0.31,0.21-0.51,0.21h-12.92c-0.2,0-0.3,0.1-0.3,0.3v11.31c0,0.2,0.1,0.3,0.3,0.3
			h7.66c0.2,0,0.37,0.07,0.51,0.21c0.14,0.14,0.21,0.31,0.21,0.51v4.61c0,0.2-0.07,0.37-0.21,0.51c-0.14,0.14-0.31,0.21-0.51,0.21
			h-7.66c-0.2,0-0.3,0.1-0.3,0.3v11.37c0,0.2,0.1,0.3,0.3,0.3h12.92c0.2,0,0.37,0.07,0.51,0.21c0.14,0.14,0.21,0.31,0.21,0.51v4.55
			c0,0.2-0.07,0.37-0.21,0.51c-0.14,0.14-0.31,0.21-0.51,0.21h-19.45c-0.2,0-0.37-0.07-0.51-0.21c-0.14-0.14-0.21-0.31-0.21-0.51
			v-40.45c0-0.2,0.07-0.37,0.21-0.51c0.14-0.14,0.31-0.21,0.51-0.21h19.45c0.2,0,0.37,0.07,0.51,0.21c0.14,0.14,0.21,0.31,0.21,0.51
			v4.55C1145.56,618.61,1145.49,618.78,1145.35,618.92z"/>
	</g>
	<path class="st2" d="M275.19,655.04h-4.72c-0.55,0-1-0.45-1-1V494.55c0-0.55,0.45-1,1-1h4.72c0.55,0,1,0.45,1,1v159.48
		C276.19,654.59,275.75,655.04,275.19,655.04z"/>
</g>
</svg>
